<svg width="85" height="85" viewBox="0 0 85 85" fill="none" xmlns="http://www.w3.org/2000/svg">
<circle cx="42.5" cy="42.5" r="42.5" fill="#072032"/>
<path d="M39.1988 16.7427C39.013 16.8356 38.7548 17.0524 38.6309 17.228C38.4038 17.548 38.4038 17.5893 38.4038 21.2136C38.4038 26.2627 38.0011 25.8601 42.9986 25.8601C46.3337 25.8601 46.437 25.8497 46.8293 25.6329C47.0875 25.4883 47.3043 25.2509 47.4385 24.9824C47.6347 24.5797 47.6451 24.3422 47.6451 21.2136C47.6451 18.085 47.6347 17.8475 47.4385 17.4448C47.3043 17.1763 47.0875 16.9388 46.8293 16.7943C46.437 16.5775 46.3337 16.5671 42.9883 16.5671C40.0249 16.5671 39.4879 16.5981 39.1988 16.7427ZM44.5474 21.2136V22.7624H42.9986H41.4498V21.2136V19.6648H42.9986H44.5474V21.2136Z" fill="#7DC1E9" stroke="#072032"/>
<path d="M28.5949 20.4806C28.0477 20.8213 27.8825 21.0795 27.8515 21.7093C27.7792 22.7006 28.0064 22.9277 29.7721 23.6505C30.0095 23.7538 29.9682 23.7951 28.9976 24.5282C26.344 26.5107 23.8659 29.4534 22.441 32.2826C21.8937 33.3668 21.8111 33.8831 22.0899 34.4303C22.5339 35.2873 23.6697 35.5042 24.4131 34.8846C24.5783 34.7401 24.9707 34.1309 25.2908 33.5217C26.6125 30.9919 28.7602 28.5138 31.1557 26.7791L31.8681 26.2525L31.8062 26.7585C31.6203 28.3176 31.6203 28.266 31.8681 28.7513C32.4257 29.8355 33.8919 29.9387 34.5218 28.9268C34.6973 28.6481 34.7799 28.1215 34.9967 25.9634C35.2446 23.4853 35.2549 23.3098 35.1 22.8968C35.0071 22.649 34.8006 22.3702 34.656 22.2566C34.1914 21.9262 29.7204 20.2844 29.2868 20.2844C29.0802 20.2844 28.7705 20.367 28.5949 20.4806Z" fill="#7DC1E9" stroke="#072032"/>
<path d="M51.456 22.1737C50.8262 22.597 50.568 23.4644 50.8881 24.0839C51.105 24.4969 51.4147 24.7447 52.4473 25.292C54.2542 26.2522 55.8134 27.4293 57.3209 28.9678C58.1882 29.8455 59.6235 31.5905 59.6235 31.766C59.6235 31.8073 59.1279 31.8073 58.5186 31.7867C57.5068 31.7351 57.3725 31.7557 57.0628 31.9519C56.6291 32.2204 56.278 32.9741 56.3606 33.4388C56.4536 33.9137 56.784 34.399 57.1557 34.5849C57.5377 34.7914 62.3494 35.3077 62.876 35.2148C63.5988 35.0702 63.795 34.7708 64.7862 32.1378C65.7775 29.5254 65.8601 29.133 65.509 28.5651C65.1889 28.0385 64.7243 27.8011 64.1047 27.8527C63.32 27.9043 63.0102 28.1831 62.6075 29.164C62.4217 29.6183 62.2461 29.9901 62.2152 29.9797C62.1739 29.9797 61.8331 29.5461 61.4511 29.0195C59.5718 26.4484 56.7943 24.0839 53.7999 22.4938C52.5712 21.8433 52.0549 21.771 51.456 22.1737Z" fill="#7DC1E9" stroke="#072032"/>
<path d="M41.3981 31.7353C40.4379 32.0038 39.7047 32.4478 38.9097 33.2428C36.9169 35.215 36.5658 38.2713 38.0733 40.5429C38.2902 40.8527 38.4554 41.1315 38.4554 41.1625C38.4554 41.1934 38.1456 41.3999 37.7636 41.6168C37.3918 41.8439 36.7207 42.3602 36.2767 42.7732C33.7986 45.0965 32.9003 47.5849 33.0035 51.8287C33.0345 53.584 33.1377 53.8628 33.8089 54.2448C34.1909 54.4617 34.2529 54.4617 43.0089 54.4617C51.6307 54.4617 51.8372 54.4513 52.1676 54.2552C52.3535 54.1416 52.5909 53.9041 52.7045 53.7182C52.8904 53.4085 52.911 53.1916 52.911 51.1059C52.911 49.2473 52.8697 48.6691 52.7045 47.936C52.116 45.2617 50.3297 42.8145 47.9858 41.4929L47.4592 41.1831L47.8515 40.5946C49.1732 38.6224 49.1422 36.072 47.7586 34.0276C46.9636 32.8711 45.5799 31.9315 44.2583 31.6527C43.4632 31.4875 42.1106 31.5288 41.3981 31.7353ZM43.9382 34.7916C45.0327 35.1634 45.6832 36.1236 45.6832 37.3833C45.6832 38.3643 45.3321 39.0767 44.6093 39.562C43.1431 40.5533 41.3981 40.1506 40.5721 38.643C40.3243 38.1887 40.2726 37.9719 40.2623 37.373C40.2623 36.7535 40.3036 36.5676 40.5824 36.0823C41.2845 34.8433 42.5959 34.3373 43.9382 34.7916ZM44.3202 43.3721C46.3957 43.7851 48.2336 45.1997 49.1422 47.079C49.6275 48.0805 49.8134 48.9479 49.8134 50.2489V51.364H42.9263H36.0495L36.1115 50.1456C36.1941 48.7001 36.349 48.0909 36.9169 46.9241C37.5364 45.6747 38.5793 44.6525 39.9009 43.9916C41.4188 43.2482 42.7714 43.052 44.3202 43.3721Z" fill="#7DC1E9" stroke="#072032"/>
<path d="M20.1075 38.4984C17.5674 39.1179 16.0599 41.6373 16.7208 44.1877C17.1957 45.9947 18.569 47.2337 20.4689 47.5641C23.4943 48.0804 26.2718 45.3338 25.7762 42.3085C25.3322 39.6238 22.7199 37.8685 20.1075 38.4984ZM21.8835 41.658C22.4101 41.9161 22.6992 42.3911 22.6992 43.0003C22.6992 43.6301 22.4101 44.0844 21.8525 44.3529C20.7167 44.9105 19.5293 44.0225 19.6945 42.7628C19.7668 42.2568 20.0146 41.8954 20.4896 41.6476C20.9542 41.3998 21.3569 41.3998 21.8835 41.658Z" fill="#7DC1E9" stroke="#072032"/>
<path d="M63.7015 38.4983C62.0288 38.901 60.6348 40.3156 60.2528 41.978C59.8294 43.7952 60.6864 45.912 62.2456 46.8929C64.1042 48.07 66.6752 47.7705 68.1311 46.1907C69.8864 44.3012 69.8451 41.5546 68.0382 39.7373C66.8817 38.5705 65.2813 38.1162 63.7015 38.4983ZM65.4775 41.6475C65.9628 41.8747 66.3345 42.4633 66.3345 43.0105C66.3345 43.7746 65.5497 44.549 64.7753 44.549C64.3004 44.549 63.6602 44.1463 63.433 43.7023C63.0303 42.9176 63.2885 42.0812 64.0629 41.6785C64.6204 41.3997 64.9096 41.3997 65.4775 41.6475Z" fill="#7DC1E9" stroke="#072032"/>
<path d="M22.7714 50.9304C22.5753 51.0233 22.3274 51.2195 22.2242 51.3641C22.1209 51.5086 21.6356 52.6651 21.1503 53.9455C20.3553 56.0209 20.2727 56.3306 20.3036 56.8159C20.3759 57.6213 20.9748 58.1789 21.7802 58.1789C22.503 58.1789 23.0606 57.7039 23.391 56.7953C23.5149 56.4545 23.6491 56.1241 23.6904 56.0828C23.7317 56.0415 24.1034 56.4545 24.5268 57.0121C26.5712 59.6967 29.3694 62.0613 32.2812 63.5585C33.2002 64.0231 33.3757 64.0851 33.8094 64.0438C34.4496 63.9818 34.8832 63.6617 35.1001 63.0835C35.4511 62.1749 35.0794 61.5037 33.8816 60.9048C31.0525 59.4696 28.6673 57.4148 26.5402 54.5443L26.2511 54.152L27.3869 54.2242C28.4195 54.2759 28.5537 54.2655 28.8635 54.0694C29.8341 53.4808 29.8444 52.0456 28.8944 51.457C28.6363 51.3021 28.0478 51.2092 26.0549 51.0027C23.0606 50.6929 23.2154 50.7033 22.7714 50.9304Z" fill="#7DC1E9" stroke="#072032"/>
<path d="M61.9364 50.8889C61.5233 51.0748 61.2755 51.3949 60.5734 52.6856C59.6854 54.2963 58.7664 55.5147 57.4035 56.919C56.3606 58.0032 54.4504 59.6243 54.2232 59.6243C54.1819 59.6243 54.1819 59.1287 54.2129 58.5091C54.2645 57.5179 54.2439 57.3733 54.058 57.0739C53.4695 56.1446 51.9929 56.1756 51.4353 57.1255C51.2805 57.3836 51.1772 58.0445 50.9707 60.1199C50.7126 62.7735 50.7126 62.7942 50.9087 63.1866C51.012 63.4034 51.2185 63.6719 51.3631 63.7751C51.8071 64.0952 56.278 65.7163 56.7117 65.7163C57.7752 65.7163 58.4876 64.4979 58.0127 63.4963C57.8165 63.073 57.517 62.8665 56.6084 62.5257L55.9166 62.2573L56.9698 61.4829C59.0142 59.9753 61.2858 57.4663 62.7417 55.1224C64.0118 53.0779 64.2389 52.3964 63.9188 51.6324C63.6297 50.9406 62.6385 50.5688 61.9364 50.8889Z" fill="#7DC1E9" stroke="#072032"/>
<path d="M39.1988 60.3161C39.013 60.4091 38.7548 60.6259 38.6309 60.8014C38.4038 61.1215 38.4038 61.1628 38.4038 64.7871C38.4038 69.8362 38.0011 69.4335 42.9986 69.4335C46.3337 69.4335 46.437 69.4232 46.8293 69.2064C47.0875 69.0618 47.3043 68.8243 47.4385 68.5559C47.6347 68.1532 47.6451 67.9157 47.6451 64.7871C47.6451 61.6585 47.6347 61.421 47.4385 61.0183C47.3043 60.7498 47.0875 60.5123 46.8293 60.3678C46.437 60.1509 46.3337 60.1406 42.9883 60.1406C40.0249 60.1406 39.4879 60.1716 39.1988 60.3161ZM44.5474 64.7871V66.3359H42.9986H41.4498V64.7871V63.2383H42.9986H44.5474V64.7871Z" fill="#7DC1E9" stroke="#072032"/>
</svg>
