<svg width="20" height="21" viewBox="0 0 20 21" fill="none" xmlns="http://www.w3.org/2000/svg">
<path d="M15.2735 19.2501C14.511 19.2501 13.4399 18.9743 11.836 18.0783C9.88562 16.9845 8.37702 15.9747 6.43718 14.04C4.56687 12.1708 3.65671 10.9607 2.38288 8.6427C0.94382 6.02552 1.18913 4.65364 1.46335 4.06731C1.78991 3.36653 2.27195 2.94739 2.89499 2.53138C3.24888 2.29951 3.62338 2.10076 4.01374 1.93763C4.0528 1.92083 4.08913 1.90481 4.12155 1.89036C4.31491 1.80325 4.60788 1.67161 4.97898 1.81224C5.22663 1.9052 5.44773 2.09544 5.79382 2.43724C6.50359 3.13724 7.47351 4.69622 7.83132 5.46184C8.07155 5.97786 8.23054 6.31849 8.23093 6.70052C8.23093 7.14778 8.00593 7.4927 7.73288 7.86497C7.68171 7.93489 7.63093 8.00169 7.58171 8.06653C7.28444 8.45716 7.21921 8.57005 7.26218 8.77161C7.34929 9.17669 7.9989 10.3825 9.06648 11.4478C10.1341 12.513 11.3051 13.1216 11.7118 13.2083C11.9219 13.2533 12.0372 13.1853 12.4403 12.8775C12.4981 12.8333 12.5575 12.7876 12.6196 12.7419C13.036 12.4322 13.3649 12.213 13.8016 12.213H13.804C14.1841 12.213 14.5094 12.3779 15.0485 12.6497C15.7516 13.0044 17.3575 13.9618 18.0618 14.6724C18.4044 15.0177 18.5954 15.238 18.6887 15.4853C18.8294 15.8575 18.6969 16.1493 18.6106 16.3447C18.5962 16.3771 18.5801 16.4126 18.5634 16.4521C18.3989 16.8417 18.199 17.2155 17.9661 17.5685C17.5509 18.1896 17.1301 18.6704 16.4278 18.9974C16.0672 19.168 15.6725 19.2544 15.2735 19.2501Z" fill="#072032"/>
</svg>
