<svg width="85" height="85" viewBox="0 0 85 85" fill="none" xmlns="http://www.w3.org/2000/svg">
<circle cx="42.5" cy="42.5" r="42.5" fill="#072032"/>
<g clip-path="url(#clip0_805_775)">
<path d="M41.6714 23.2265C40.2823 23.394 38.2824 23.9851 37.1396 24.5565C33.7211 26.2707 31.1202 29.7779 30.2335 33.8959C29.9873 35.0584 29.9873 37.5607 30.2335 38.7232C30.8542 41.5901 32.1152 43.6885 34.4895 45.7968C34.9821 46.2303 35.4451 46.7228 35.5141 46.8903C35.7013 47.3435 35.6027 48.3188 35.3367 48.6538C34.3713 49.8655 34.2235 51.2842 34.9328 52.6142L35.2382 53.1856L35.0018 53.5599C34.3516 54.5944 34.3122 55.8357 34.8737 56.9489C35.3269 57.8553 36.5584 58.7222 37.376 58.7222C37.7701 58.7222 37.8292 58.8109 38.174 59.6877C38.9819 61.7861 40.5877 62.9191 42.9127 63.0274C43.622 63.0669 44.0063 63.0373 44.4397 62.9092C46.1835 62.4068 47.4544 61.195 48.0258 59.5202L48.2622 58.8405L48.7055 58.7715C49.7991 58.6139 50.8729 57.806 51.3359 56.8012C51.8088 55.7667 51.73 54.4564 51.1192 53.491L50.8828 53.1166L51.1291 52.7521C51.8876 51.6389 51.8384 50.1611 51.0108 48.9592C50.666 48.4567 50.4887 47.9149 50.4887 47.3238C50.4887 46.7425 50.5281 46.6736 51.3064 46.0431C55.3653 42.7723 56.9022 38.2602 55.7101 33.157C54.6658 28.6745 51.1783 24.9702 46.8239 23.7092C45.2673 23.256 43.0506 23.0492 41.6714 23.2265ZM45.3165 25.7485C48.0947 26.3593 50.4296 27.9455 51.9566 30.2606C52.6364 31.295 53.0698 32.2704 53.4245 33.5905C53.6511 34.4377 53.6708 34.7234 53.6807 36.3588C53.6807 38.4868 53.5427 39.1567 52.8137 40.6443C52.0748 42.1516 51.1192 43.255 49.4543 44.5161C48.3115 45.383 48.1932 45.5997 48.2129 46.6637L48.2228 47.4913H47.2869H46.3411L46.3707 44.9298L46.4002 42.3684L47.6908 41.068C48.41 40.3488 49.0405 39.6592 49.0996 39.5409C49.3853 38.9892 49.1292 38.2602 48.5578 37.9844C47.8878 37.6691 47.6021 37.8366 45.7894 39.6493C44.5087 40.93 44.1836 41.3142 44.0949 41.6295C44.026 41.8659 43.9866 43.127 43.9866 44.7525V47.4913H43.0506H42.1147V44.6934C42.1147 42.9004 42.0753 41.7871 42.0064 41.5704C41.8783 41.196 39.0114 38.2208 38.5287 37.9647C37.7603 37.5607 36.7357 38.408 36.9524 39.2749C36.9918 39.4523 37.5435 40.0926 38.3908 40.9596L39.7503 42.3487V44.92V47.4913H38.8637C37.8588 47.4913 37.9573 47.6095 37.9376 46.4076C37.9179 45.58 37.7504 45.3042 36.8638 44.6835C35.9377 44.0333 34.7062 42.861 34.1841 42.1221C31.7704 38.7232 31.7704 33.9944 34.1644 30.3197C35.7604 27.8666 38.312 26.1623 41.031 25.719C41.435 25.6599 41.8389 25.5909 41.9177 25.5712C42.2625 25.4825 44.686 25.6205 45.3165 25.7485ZM48.6563 49.9936C49.3459 50.2793 49.5429 51.1167 49.0306 51.6192C48.7745 51.8753 48.6957 51.895 47.7302 51.9443C47.1588 51.964 44.6565 51.9837 42.164 51.9837C38.0361 51.9738 37.6026 51.9541 37.3169 51.7965C36.6273 51.4221 36.6864 50.3187 37.4155 50.0035C37.8785 49.7966 48.1735 49.7867 48.6563 49.9936ZM48.5381 54.3875C49.0208 54.5254 49.3065 54.8998 49.3065 55.3924C49.3065 55.9638 48.9223 56.3184 48.2129 56.4071C47.9174 56.4366 45.3954 56.4563 42.6073 56.4366C36.9918 56.4071 37.1692 56.4268 36.8933 55.7766C36.647 55.1756 36.9327 54.5747 37.5435 54.3875C37.9573 54.2693 48.0947 54.2693 48.5381 54.3875ZM45.7599 58.87C45.7599 59.0671 45.3165 59.7271 45.0111 59.9931C43.5925 61.2443 41.366 60.8502 40.5286 59.205L40.3414 58.8208H43.0506C44.5383 58.8208 45.7599 58.8405 45.7599 58.87Z" fill="#D6F1FF"/>
<path d="M24.8741 28.5169C24.4702 28.645 24.0859 29.1671 24.0859 29.5809C24.0859 30.1424 24.3322 30.4183 25.2484 30.8813C26.5981 31.5512 27.4158 31.8468 27.7212 31.7778C28.1646 31.6793 28.5389 31.2163 28.5882 30.704C28.667 30.0144 28.4897 29.8173 27.1006 29.1671C25.613 28.4578 25.3174 28.3691 24.8741 28.5169Z" fill="#D6F1FF"/>
<path d="M59.404 29.0192C58.0937 29.6201 57.7883 29.8172 57.6011 30.162C57.3154 30.694 57.7193 31.5412 58.3597 31.7383C58.6946 31.8368 58.803 31.8171 59.4631 31.5412C60.7832 30.9797 61.66 30.497 61.8472 30.2408C62.2018 29.7581 62.0344 28.9404 61.5319 28.6448C61.0689 28.369 60.665 28.4379 59.404 29.0192Z" fill="#D6F1FF"/>
<path d="M23.7409 34.5461C23.2878 34.7727 23.1006 35.0682 23.1006 35.5904C23.1006 35.9746 23.1498 36.1027 23.3961 36.349C23.7804 36.7332 24.0759 36.7824 25.731 36.7332C26.8245 36.7135 27.1398 36.6642 27.3467 36.5263C28.056 36.0534 27.9575 34.8515 27.1891 34.5264C26.6965 34.3195 24.1449 34.3294 23.7409 34.5461Z" fill="#D6F1FF"/>
<path d="M59.0986 34.4575C58.9804 34.4772 58.7636 34.6348 58.606 34.7925C58.3696 35.0388 58.3203 35.1767 58.3203 35.5707C58.3203 35.9944 58.3696 36.1027 58.6454 36.3786L58.9607 36.7037L60.4089 36.7333C62.0246 36.7727 62.4876 36.6938 62.793 36.2899C63.0491 35.9747 63.0688 35.2259 62.8423 34.891C62.5467 34.4772 62.1329 34.3885 60.665 34.3984C59.9163 34.4082 59.207 34.4378 59.0986 34.4575Z" fill="#D6F1FF"/>
<path d="M27.1887 39.3932C26.6961 39.5016 24.4006 40.6838 24.2528 40.9006C23.8489 41.472 24.1543 42.3389 24.8538 42.6345C25.2676 42.8118 25.4843 42.7428 27.1 41.9744C28.1246 41.4818 28.3118 41.3537 28.4595 41.0582C28.6664 40.605 28.6566 40.3193 28.4201 39.9351C28.164 39.5016 27.6615 39.275 27.1887 39.3932Z" fill="#D6F1FF"/>
<path d="M58.222 39.4523C57.5718 39.738 57.3058 40.467 57.6309 41.0778C57.7689 41.3537 58.0053 41.5014 58.9905 41.9743C60.6357 42.7427 60.8328 42.8019 61.2465 42.6344C61.6997 42.4373 61.9263 42.1516 61.9854 41.6985C62.0741 41.0482 61.8376 40.7527 60.8525 40.2601C59.9855 39.8266 58.7442 39.3143 58.5964 39.3143C58.557 39.3242 58.3895 39.3833 58.222 39.4523Z" fill="#D6F1FF"/>
</g>
<defs>
<clipPath id="clip0_805_775">
<rect width="40" height="40" fill="white" transform="translate(23 23)"/>
</clipPath>
</defs>
</svg>
