<svg width="85" height="85" viewBox="0 0 85 85" fill="none" xmlns="http://www.w3.org/2000/svg">
<circle cx="42.5" cy="42.5" r="42.5" fill="#072032"/>
<g clip-path="url(#clip0_805_793)">
<path d="M44.7188 23.125C41.2969 23.5391 38 25.1016 35.5156 27.4844C35.0078 27.9688 34.875 28.2031 34.875 28.625C34.875 29.2578 35.2734 29.7578 35.8438 29.8516C36.3672 29.9375 36.6406 29.8203 37.2813 29.2422C39.4297 27.2891 41.8906 26.0938 44.6797 25.6406C45.4844 25.5156 47.9375 25.5156 48.7422 25.6406C54.7813 26.6094 59.3906 31.2188 60.3594 37.2578C60.4844 38.0703 60.4844 40.5156 60.3516 41.3203C59.9141 44.0234 58.8125 46.3906 57.0469 48.3828C56.2031 49.3281 56.125 49.4531 56.125 49.8594C56.125 50.5625 56.5469 51.0469 57.2266 51.1094C57.7656 51.1563 58 51.0313 58.6406 50.3516C59.9375 48.9688 61.0703 47.1875 61.7969 45.4063C63.9375 40.1016 63.1719 34.1641 59.7422 29.5234C59.0703 28.6172 57.3828 26.9297 56.4766 26.2578C53.0547 23.7344 48.8906 22.6172 44.7188 23.125Z" fill="#D6F1FF"/>
<path d="M29.8281 30.6562C29.4219 30.7422 26.9141 31.7422 26.0859 32.164C24.7812 32.8125 24.125 33.4375 23.6172 34.5234C23.1719 35.4609 23.0469 36.1094 23.0469 37.5312C23.0547 39.0078 23.1875 39.789 23.7188 41.4375C26.3906 49.6797 35.9531 59.3359 44.25 62.1718C47.7578 63.375 50.5078 63.25 52.4219 61.8047C53.2422 61.1875 53.8125 60.1718 54.875 57.4922C55.3516 56.2968 55.375 56.2109 55.3672 55.5781C55.3672 54.5078 54.8984 53.5781 54.0781 53.0156C53.375 52.539 48.8828 49.9922 48.5078 49.8593C47.6562 49.5625 46.4688 49.7343 45.7188 50.25C45.2734 50.5547 45.1094 50.75 44.6172 51.4843C44.1094 52.2578 43.6562 52.5312 42.8906 52.5312C42.25 52.5234 41.9766 52.3828 40.8828 51.5078C38.4062 49.5156 36.1016 47.1875 34.2266 44.7812C33.5938 43.9687 33.4688 43.6953 33.4688 43.0859C33.4688 42.3906 33.7578 41.8828 34.4062 41.4531C35.4922 40.7265 35.8516 40.3281 36.1328 39.5078C36.3203 38.9453 36.3281 38.0312 36.1406 37.4922C35.9375 36.914 33.0938 32.0234 32.7031 31.5859C32.3125 31.1562 31.6094 30.7734 30.9766 30.6562C30.5 30.5703 30.2891 30.5703 29.8281 30.6562ZM30.7266 33.1875C31.0078 33.3437 33.7812 38.1719 33.7812 38.5C33.7812 38.8281 33.7031 38.914 33.0234 39.3593C31.6875 40.2343 30.9688 41.5312 30.9688 43.0781C30.9688 44.2968 31.2734 45.0547 32.2891 46.3593C34.2656 48.9062 37.1094 51.7343 39.6719 53.7343C40.9453 54.7265 41.7109 55.0312 42.9375 55.0312C44.4688 55.0312 45.7734 54.3047 46.6484 52.9687C46.8438 52.664 47.0625 52.3672 47.125 52.3203C47.4297 52.0703 47.7031 52.1953 50.2344 53.6562C52.3047 54.8515 52.7344 55.1328 52.8359 55.3359C52.9531 55.5781 52.9375 55.6172 52.4531 56.8125C51.4375 59.3281 51.1797 59.7422 50.3984 60.1172C47.5625 61.4531 41.5703 59.0547 36.1641 54.4218C35.0078 53.4297 32.7969 51.2265 31.7891 50.0703C28.0469 45.7578 25.6953 41.1562 25.5234 37.8047C25.4766 36.8984 25.5703 36.2969 25.8594 35.6484C26.2266 34.8437 26.5781 34.6172 29.0156 33.6094C29.7266 33.3203 30.3594 33.0859 30.4219 33.0859C30.4844 33.0859 30.625 33.1328 30.7266 33.1875Z" fill="#D6F1FF"/>
<path d="M41.3433 32.8125C40.7027 32.9609 39.9917 33.3437 39.523 33.7891C38.2964 34.9453 37.9917 37.1719 38.9605 37.875C39.273 38.1016 40.0074 38.1016 40.3199 37.875C40.7339 37.5703 40.8902 37.2422 40.8902 36.6953C40.8902 36.0469 41.0308 35.7187 41.4449 35.4453C41.7417 35.25 41.8433 35.2266 42.4058 35.2266C43.5855 35.2266 44.1636 35.7266 44.1714 36.7344C44.1714 37.6328 44.0386 37.8047 41.9839 39.4453C40.1324 40.9297 39.0152 42.1484 38.5464 43.1797C38.2417 43.8437 38.4136 44.4531 39.0152 44.8594L39.2808 45.0391L42.773 45.0156C46.1636 44.9922 46.273 44.9844 46.4839 44.8281C47.0464 44.4141 47.1949 43.8281 46.8902 43.2344C46.5621 42.6016 46.4605 42.5781 44.1714 42.5312L42.1792 42.4922L43.5464 41.4062C45.0933 40.1719 45.9136 39.3828 46.2183 38.8125C46.6949 37.9219 46.8277 36.4922 46.523 35.4922C45.9917 33.7891 44.3667 32.6797 42.4136 32.6953C42.0699 32.6953 41.5855 32.75 41.3433 32.8125Z" fill="#D6F1FF"/>
<path d="M53.2184 32.8594C52.9294 33.0391 47.0075 40.1641 46.7731 40.6172C46.5075 41.1172 46.6794 41.8125 47.1638 42.1719C47.3747 42.3281 47.4997 42.3359 49.9763 42.375L52.57 42.4141L52.6091 43.3516C52.6559 44.4141 52.7184 44.5781 53.2419 44.8672C53.8278 45.2031 54.6169 44.9688 54.9294 44.3828C55.0231 44.2031 55.07 43.8828 55.0934 43.25L55.1247 42.375H55.4216C55.5934 42.375 55.82 42.3047 55.9684 42.1953C56.945 41.5469 56.6013 40.1094 55.4294 39.9219L55.1169 39.875L55.0934 36.7266C55.07 33.9219 55.0544 33.5625 54.9372 33.3359C54.6091 32.7422 53.7731 32.5078 53.2184 32.8594ZM52.5856 39.8516C52.5622 39.8672 52.1091 39.8672 51.57 39.8594L50.5856 39.8359L51.5778 38.625L52.57 37.4219L52.5935 38.6172C52.6013 39.2813 52.6013 39.8359 52.5856 39.8516Z" fill="#D6F1FF"/>
</g>
<defs>
<clipPath id="clip0_805_793">
<rect width="40" height="40" fill="white" transform="translate(23 23)"/>
</clipPath>
</defs>
</svg>
