<svg width="85" height="85" viewBox="0 0 85 85" fill="none" xmlns="http://www.w3.org/2000/svg">
<circle cx="42.5" cy="42.5" r="42.5" fill="#072032"/>
<path d="M41.3772 19.9651C41.2058 19.9831 40.6738 20.0463 40.2048 20.0913C37.2289 20.416 33.9373 21.5342 31.2769 23.1214C27.8951 25.1415 25.1446 27.892 23.1246 31.2738C21.5464 33.907 20.5003 36.9732 20.0765 40.2017C19.9322 41.3109 19.9322 44.6836 20.0765 45.7929C20.816 51.4111 23.2869 56.1636 27.4713 60.0504C29.7799 62.2058 32.6567 63.8831 35.786 64.9112C38.2569 65.7318 40.2138 66.0294 43.0004 66.0294C45.0565 66.0294 45.9674 65.9483 47.78 65.5785C53.9935 64.307 59.5396 60.321 62.8763 54.7208C64.4544 52.0875 65.5005 49.0213 65.9244 45.7929C66.0687 44.6836 66.0687 41.3109 65.9244 40.2017C65.5005 36.9732 64.4544 33.907 62.8763 31.2738C60.8562 27.892 58.1057 25.1415 54.7239 23.1214C52.1177 21.5613 49.0065 20.4972 45.8862 20.0913C45.0926 19.9831 41.9363 19.902 41.3772 19.9651ZM44.4884 22.7427C49.7459 22.9861 55.3101 25.89 58.773 30.1916C62.0195 34.2317 63.5346 38.9481 63.2731 44.1876C62.8853 52.0334 57.7269 59.1035 50.278 61.9713C47.6177 62.9993 44.8581 63.4232 41.801 63.2699C31.6467 62.7649 23.2328 54.351 22.7278 44.1876C22.5745 41.1395 22.9983 38.38 24.0264 35.7197C26.8941 28.2888 33.9192 23.1395 41.783 22.7156C42.4323 22.6795 43.0816 22.6615 43.2259 22.6795C43.3792 22.6886 43.9473 22.7156 44.4884 22.7427Z" fill="#7DC1E9"/>
<path d="M32.9 35.3048C31.7367 35.4941 30.0864 36.441 29.6445 37.1625C29.1124 38.0372 29.7797 39.2096 30.8078 39.2096C31.2497 39.2096 31.4391 39.1284 31.9621 38.7046C32.5483 38.2266 33.1254 38.0102 33.8469 38.0012C34.8118 38.0012 35.0914 38.1094 36.1826 38.894C36.5343 39.1465 36.6966 39.2096 37.0483 39.2096C38.0764 39.2096 38.6986 38.1635 38.2207 37.2346C38.0313 36.8559 37.1926 36.1795 36.4802 35.8098C35.5603 35.3499 33.9822 35.1244 32.9 35.3048Z" fill="#7DC1E9"/>
<path d="M50.6114 35.413C49.8088 35.6294 49.2497 35.909 48.5192 36.4591C47.6535 37.1084 47.401 37.7847 47.7617 38.4881C47.9871 38.9391 48.438 39.2096 48.9521 39.2096C49.3038 39.2096 49.4661 39.1465 49.8178 38.894C50.909 38.1094 51.1885 38.0012 52.1535 38.0012C52.8749 38.0102 53.4521 38.2266 54.0383 38.7046C54.5613 39.1284 54.7507 39.2096 55.1926 39.2096C56.2206 39.2096 56.888 38.0372 56.3559 37.1625C56.0042 36.5944 54.9311 35.8819 53.8218 35.4941C53.0733 35.2236 51.4501 35.1875 50.6114 35.413Z" fill="#7DC1E9"/>
<path d="M30.1946 44.1875C29.6265 44.4851 29.4731 44.8368 29.4731 45.8018C29.4731 47.8759 30.2126 50.3649 31.4391 52.421C33.1706 55.3248 36.3269 57.6695 39.6275 58.4992C41.2417 58.905 43.3971 59.0223 44.9391 58.7878C50.7829 57.895 55.355 53.431 56.347 47.6505C56.4462 47.0643 56.5274 46.2346 56.5274 45.8018C56.5274 44.8368 56.3741 44.4851 55.8059 44.1875L55.4091 43.9891H43.0003H30.5914L30.1946 44.1875ZM53.6777 47.0733C53.2358 49.5443 52.1446 51.5733 50.368 53.2507C46.2287 57.1465 39.7718 57.1465 35.6325 53.2507C33.8559 51.5733 32.7647 49.5443 32.3229 47.0733L32.2778 46.7847H43.0003H53.7318L53.6777 47.0733Z" fill="#7DC1E9"/>
</svg>
