<svg width="85" height="85" viewBox="0 0 85 85" fill="none" xmlns="http://www.w3.org/2000/svg">
<circle cx="42.5" cy="42.5" r="42.5" fill="#072032"/>
<path d="M42.5192 20.097C42.3465 20.1834 42.0202 20.7303 41.3006 22.1792C40.7632 23.2634 40.3027 24.1846 40.2931 24.223C40.2739 24.2709 39.3719 24.4245 38.2973 24.578C37.213 24.7315 36.1767 24.9042 35.9848 24.9618C35.553 25.0769 35.3228 25.4128 35.3228 25.8925C35.3228 26.238 35.4091 26.3435 36.9443 27.8691L38.5755 29.4811L38.2013 31.6497C37.8751 33.5975 37.8463 33.8566 37.9614 34.1348C38.0286 34.3075 38.1725 34.4899 38.2781 34.5474C38.7482 34.7969 39.1225 34.6722 41.0511 33.6551L42.951 32.6476L44.8796 33.6551C47.0097 34.7585 47.3264 34.8449 47.7486 34.4227C47.8733 34.2979 48.0076 34.0869 48.0364 33.9621C48.0652 33.847 47.9213 32.7819 47.7198 31.6113L47.3552 29.4715L48.9576 27.8883C50.6559 26.2092 50.7615 26.0365 50.5312 25.4703C50.3393 25.0194 50.013 24.9138 47.9884 24.626C47.0097 24.4916 46.0886 24.3573 45.9351 24.3285C45.6952 24.2805 45.5705 24.079 44.7165 22.3327C44.1983 21.2676 43.661 20.3081 43.5267 20.1834C43.2484 19.9531 42.8838 19.9147 42.5192 20.097ZM44.5342 25.9405C44.7261 26.0748 46.9138 26.4874 47.5375 26.497C47.6046 26.497 47.1441 26.996 46.53 27.5909C45.2154 28.8479 45.273 28.6847 45.5896 30.527C45.6952 31.1315 45.7815 31.7072 45.7815 31.7936C45.7815 31.9279 45.5225 31.8224 44.5054 31.2946C43.7953 30.9204 43.1045 30.623 42.951 30.623C42.807 30.623 42.1066 30.9204 41.3965 31.2946C40.6961 31.6689 40.1204 31.9279 40.1204 31.8799C40.1204 31.8224 40.2259 31.1699 40.3602 30.4215C40.5617 29.2413 40.5809 29.0302 40.4658 28.7711C40.3986 28.5984 39.8997 28.0419 39.3527 27.5237C38.8154 27.0056 38.3932 26.5642 38.4124 26.5354C38.4316 26.5162 39.0745 26.4107 39.8421 26.2955C40.6001 26.19 41.3198 26.0365 41.4349 25.9693C41.5501 25.8925 41.9243 25.2305 42.2889 24.482L42.9414 23.1291L43.6226 24.4532C43.9968 25.1921 44.3998 25.8446 44.5342 25.9405Z" fill="#7DC1E9"/>
<path d="M26.0631 28.8192C25.8616 28.9727 24.7678 30.9685 24.5663 31.5634C24.5471 31.621 23.9234 31.7553 23.1846 31.8705C21.4382 32.1296 21.4286 32.1296 21.16 32.3982C20.9873 32.5709 20.9297 32.7341 20.9297 33.0411C20.9297 33.4441 20.9681 33.4921 22.0619 34.5859L23.2038 35.7182L22.9831 36.9368C22.6184 38.9422 22.6856 39.3356 23.4244 39.5563C23.7795 39.6618 23.8274 39.6522 25.1996 38.9326L26.6005 38.1937L28.0206 38.9326C29.6134 39.7482 29.8341 39.7769 30.285 39.2396C30.5825 38.8942 30.5825 38.8942 30.285 37.1383L30.0451 35.7182L31.1582 34.6339C32.1465 33.6648 32.2712 33.5113 32.3192 33.1562C32.3576 32.8204 32.3288 32.7149 32.0889 32.4558C31.8299 32.1487 31.7627 32.1391 30.2946 31.9185C29.4598 31.7937 28.7594 31.6786 28.7498 31.6594C28.7306 31.6402 28.414 31.0165 28.0397 30.2681C27.512 29.203 27.3009 28.8672 27.0802 28.752C26.6868 28.5505 26.3798 28.5697 26.0631 28.8192ZM27.5792 33.3481C27.7423 33.4537 28.8841 33.6936 29.2392 33.6936C29.2775 33.6936 29.0472 33.9718 28.721 34.3077C28.4044 34.6435 28.1165 35.0177 28.0781 35.1425C28.0493 35.2672 28.0877 35.7086 28.1549 36.1116C28.2317 36.5242 28.27 36.86 28.2508 36.86C28.2317 36.86 27.915 36.7065 27.5504 36.5242C27.1858 36.3419 26.7444 36.1883 26.5813 36.1883C26.4086 36.1883 25.996 36.3419 25.6505 36.5242C25.3147 36.7161 25.0173 36.8504 24.9885 36.8216C24.9693 36.8024 24.9885 36.5338 25.046 36.2267C25.2475 35.1712 25.2188 35.0849 24.5279 34.3652L23.8946 33.7224L24.6143 33.6072C25.6793 33.4537 25.7849 33.3769 26.2263 32.5038L26.6101 31.7266L26.9843 32.475C27.1954 32.878 27.4544 33.2714 27.5792 33.3481Z" fill="#7DC1E9"/>
<path d="M58.6872 28.8192C58.4857 28.9727 57.3918 30.9685 57.1903 31.5634C57.1711 31.621 56.5474 31.7553 55.8086 31.8705C54.0623 32.1296 54.0527 32.1296 53.784 32.3982C53.6113 32.5709 53.5537 32.7341 53.5537 33.0411C53.5537 33.4441 53.5921 33.4921 54.6859 34.5859L55.8278 35.7182L55.6071 36.9368C55.2425 38.9422 55.3096 39.3356 56.0485 39.5563C56.4035 39.6618 56.4515 39.6522 57.8236 38.9326L59.2245 38.1937L60.6446 38.9326C62.2374 39.7482 62.4581 39.7769 62.9091 39.2396C63.2065 38.8942 63.2065 38.8942 62.9091 37.1383L62.6692 35.7182L63.7822 34.6339C64.7705 33.6648 64.8953 33.5113 64.9432 33.1562C64.9816 32.8204 64.9528 32.7149 64.713 32.4558C64.4539 32.1487 64.3867 32.1391 62.9186 31.9185C62.0839 31.7937 61.3834 31.6786 61.3738 31.6594C61.3546 31.6402 61.038 31.0165 60.6638 30.2681C60.136 29.203 59.9249 28.8672 59.7042 28.752C59.3108 28.5505 59.0038 28.5697 58.6872 28.8192ZM60.2032 33.3481C60.3663 33.4537 61.5082 33.6936 61.8632 33.6936C61.9016 33.6936 61.6713 33.9718 61.345 34.3077C61.0284 34.6435 60.7405 35.0177 60.7022 35.1425C60.6734 35.2672 60.7117 35.7086 60.7789 36.1116C60.8557 36.5242 60.8941 36.86 60.8749 36.86C60.8557 36.86 60.539 36.7065 60.1744 36.5242C59.8098 36.3419 59.3684 36.1883 59.2053 36.1883C59.0326 36.1883 58.62 36.3419 58.2746 36.5242C57.9387 36.7161 57.6413 36.8504 57.6125 36.8216C57.5933 36.8024 57.6125 36.5338 57.6701 36.2267C57.8716 35.1712 57.8428 35.0849 57.1519 34.3652L56.5186 33.7224L57.2383 33.6072C58.3033 33.4537 58.4089 33.3769 58.8503 32.5038L59.2341 31.7266L59.6083 32.475C59.8194 32.878 60.0785 33.2714 60.2032 33.3481Z" fill="#7DC1E9"/>
<path d="M41.5691 37.3877C40.1011 37.7235 39.1224 38.1937 38.0861 39.0668C36.9634 40.0072 36.0711 41.3505 35.6489 42.761C35.4186 43.519 35.3802 43.7877 35.3802 44.9199C35.3802 46.0522 35.4186 46.3208 35.6489 47.0788C36.2054 48.9403 37.4528 50.5139 39.1895 51.5694C39.8132 51.9436 41.0126 52.3754 41.7227 52.4714C42.212 52.5385 42.2792 52.6921 41.8186 52.6921C40.9742 52.6921 39.4198 53.1142 38.2108 53.6612C36.9347 54.2465 35.8504 55.0237 34.7661 56.1271L33.7874 57.1251L33.394 56.77C32.3385 55.8201 30.7169 55.0429 29.1145 54.7166C28.5772 54.6015 28.107 54.5151 28.0591 54.5056C28.0207 54.5056 28.2606 54.4384 28.606 54.3616C31.1583 53.8147 33.1158 51.3775 33.1158 48.758C33.1158 45.6492 30.4675 43.0009 27.3586 43.0009C24.2498 43.0009 21.6015 45.6492 21.6015 48.758C21.6015 51.3775 23.5781 53.8339 26.1112 54.3616L26.7349 54.4864L26.3511 54.5631C24.7295 54.851 23.6069 55.2636 22.5514 55.9352C21.0066 56.9331 19.6345 58.5643 19.03 60.138C18.5982 61.2702 18.4351 62.2873 18.4351 63.9281V65.3578L18.7133 65.6648L18.9916 65.9814L42.9413 66.0102L66.8909 66.0294L67.198 65.7512L67.5146 65.4729L67.5434 64.024C67.5818 62.364 67.4283 61.3374 66.9677 60.1475C66.3632 58.5643 64.9911 56.9331 63.4463 55.9352C62.3908 55.2636 61.2681 54.851 59.6465 54.5631L59.2627 54.4864L59.8864 54.3616C62.4196 53.8339 64.3962 51.3775 64.3962 48.758C64.3962 45.6492 61.7479 43.0009 58.639 43.0009C55.5302 43.0009 52.8819 45.6492 52.8819 48.758C52.8819 51.3775 54.8393 53.8147 57.3917 54.3616C57.7371 54.4384 57.977 54.5056 57.9386 54.5056C57.8906 54.5151 57.4205 54.6015 56.8831 54.7166C55.2711 55.0429 53.6591 55.8201 52.5941 56.7796L52.2006 57.1346L51.4714 56.3478C50.5311 55.3307 49.4468 54.5056 48.209 53.8819C46.8657 53.2006 45.1482 52.6921 44.179 52.6921C43.7185 52.6921 43.7856 52.5385 44.275 52.4714C44.985 52.3754 46.1844 51.9436 46.8081 51.5694C48.5449 50.5139 49.7922 48.9403 50.3488 47.0788C50.5791 46.3208 50.6174 46.0522 50.6174 44.9199C50.6174 43.7877 50.5791 43.519 50.3488 42.761C49.6003 40.2854 47.6045 38.2896 45.1578 37.57C44.0735 37.2533 42.4999 37.1766 41.5691 37.3877ZM44.1982 39.3067C46.7889 39.8536 48.756 42.2716 48.756 44.9199C48.756 48.0288 46.1077 50.6771 42.9988 50.6771C40.3505 50.6771 37.9326 48.71 37.3856 46.1193C36.973 44.1619 37.5391 42.31 38.9592 40.8803C40.3889 39.4506 42.2408 38.8941 44.1982 39.3067ZM28.251 45.0639C29.8054 45.4669 30.8225 46.5703 31.1199 48.1823C31.331 49.2953 30.8993 50.6003 30.0453 51.4447C29.2009 52.2987 27.8959 52.7304 26.7829 52.5193C25.075 52.2027 23.9139 51.0417 23.5973 49.3337C23.3862 48.2303 23.818 46.9157 24.6528 46.0809C25.6315 45.1022 26.9556 44.728 28.251 45.0639ZM59.5314 45.0639C61.0858 45.4669 62.1029 46.5703 62.4004 48.1823C62.6882 49.7175 61.7575 51.5214 60.3182 52.1739C59.1764 52.7017 58.1017 52.7017 56.9599 52.1739C55.5206 51.5214 54.5899 49.7175 54.8777 48.1823C55.1656 46.5895 56.1827 45.4764 57.7083 45.0639C58.3704 44.8911 58.8597 44.8911 59.5314 45.0639ZM45.3017 54.803C46.4435 55.0813 48.0651 55.8969 49.0342 56.6741C50.368 57.7583 51.529 59.4375 52.1047 61.1071C52.335 61.7883 52.5941 63.1892 52.5941 63.7362V64.1104H42.9988H33.4036V63.7362C33.4036 63.5347 33.4708 62.9973 33.5475 62.5368C34.248 58.5355 37.3376 55.4267 41.3676 54.6591C42.356 54.4672 44.2366 54.5343 45.3017 54.803ZM29.2297 56.6837C30.3907 57.0003 31.7724 57.7775 32.4825 58.5355L32.7607 58.8234L32.4633 59.5239C31.9068 60.848 31.6573 61.8747 31.5229 63.3619L31.4654 64.1104H25.9097H20.3541V63.314C20.3637 60.7616 21.7742 58.4684 24.0962 57.2594C24.7871 56.9044 25.4971 56.6549 26.188 56.5301C26.8309 56.4054 28.5484 56.4918 29.2297 56.6837ZM60.6061 56.7221C62.5539 57.3266 64.0987 58.6219 64.9719 60.3874C65.4325 61.3278 65.6436 62.2393 65.6436 63.314V64.1104H60.0879H54.5323L54.4747 63.3715C54.3404 61.8747 54.0909 60.848 53.5344 59.5239L53.2369 58.8234L53.5152 58.5355C54.4267 57.5664 56.0963 56.7412 57.6315 56.4918C58.284 56.3958 59.944 56.5206 60.6061 56.7221Z" fill="#7DC1E9"/>
</svg>
