<svg width="45" height="44" viewBox="0 0 45 44" fill="none" xmlns="http://www.w3.org/2000/svg">
<rect width="44.3774" height="42.3774" rx="10" transform="matrix(-1 0 0 1 45 0.811279)" fill="#D6F1FF"/>
<path d="M24.3797 26.6281C24.1587 26.8689 24.0365 27.1914 24.0392 27.5261C24.042 27.8609 24.1696 28.1811 24.3944 28.4178C24.6193 28.6545 24.9236 28.7888 25.2416 28.7917C25.5596 28.7946 25.866 28.6659 26.0948 28.4334L30.9466 23.3265C31.174 23.087 31.3018 22.7624 31.3018 22.4238C31.3018 22.0853 31.174 21.7606 30.9466 21.5212L26.0948 16.4143C25.866 16.1817 25.5596 16.053 25.2416 16.0559C24.9236 16.0589 24.6193 16.1931 24.3944 16.4298C24.1696 16.6666 24.042 16.9868 24.0392 17.3215C24.0365 17.6563 24.1587 17.9788 24.3797 18.2196L27.161 21.1471H15.5336C15.2119 21.1471 14.9034 21.2816 14.6759 21.521C14.4484 21.7605 14.3206 22.0852 14.3206 22.4238C14.3206 22.7624 14.4484 23.0872 14.6759 23.3266C14.9034 23.566 15.2119 23.7005 15.5336 23.7005H27.161L24.3797 26.6281Z" fill="#1C1C1C"/>
</svg>
