<svg width="23" height="23" viewBox="0 0 23 23" fill="none" xmlns="http://www.w3.org/2000/svg">
<path d="M11.3829 5.79491C14.5032 5.79491 17.0786 8.37037 17.0786 11.4906C17.0786 14.6604 14.5032 17.1863 11.3829 17.1863C8.21311 17.1863 5.68718 14.6604 5.68718 11.4906C5.68718 8.37037 8.21311 5.79491 11.3829 5.79491ZM11.3829 15.2052C13.4135 15.2052 15.048 13.5708 15.048 11.4906C15.048 9.45998 13.4135 7.82556 11.3829 7.82556C9.30272 7.82556 7.6683 9.45998 7.6683 11.4906C7.6683 13.5708 9.35225 15.2052 11.3829 15.2052ZM18.614 5.5968C18.614 6.33972 18.0196 6.93406 17.2767 6.93406C16.5338 6.93406 15.9395 6.33972 15.9395 5.5968C15.9395 4.85388 16.5338 4.25955 17.2767 4.25955C18.0196 4.25955 18.614 4.85388 18.614 5.5968ZM22.3781 6.93406C22.4772 8.76659 22.4772 14.2642 22.3781 16.0967C22.2791 17.8797 21.8828 19.4151 20.5951 20.7524C19.3074 22.0401 17.7225 22.4363 15.9395 22.5354C14.1069 22.6344 8.60933 22.6344 6.7768 22.5354C4.99379 22.4363 3.45842 22.0401 2.12117 20.7524C0.833439 19.4151 0.437215 17.8797 0.338159 16.0967C0.239103 14.2642 0.239103 8.76659 0.338159 6.93406C0.437215 5.15105 0.833439 3.56615 2.12117 2.27843C3.45842 0.990699 4.99379 0.594475 6.7768 0.495419C8.60933 0.396363 14.1069 0.396363 15.9395 0.495419C17.7225 0.594475 19.3074 0.990699 20.5951 2.27843C21.8828 3.56615 22.2791 5.15105 22.3781 6.93406ZM20.0008 18.0283C20.5951 16.592 20.4465 13.1251 20.4465 11.4906C20.4465 9.90573 20.5951 6.43878 20.0008 4.95294C19.6045 4.01191 18.8616 3.21946 17.9206 2.87276C16.4348 2.27843 12.9678 2.42701 11.3829 2.42701C9.74847 2.42701 6.28152 2.27843 4.8452 2.87276C3.85465 3.26899 3.11173 4.01191 2.7155 4.95294C2.12117 6.43878 2.26975 9.90573 2.26975 11.4906C2.26975 13.1251 2.12117 16.592 2.7155 18.0283C3.11173 19.0189 3.85465 19.7618 4.8452 20.158C6.28152 20.7524 9.74847 20.6038 11.3829 20.6038C12.9678 20.6038 16.4348 20.7524 17.9206 20.158C18.8616 19.7618 19.6541 19.0189 20.0008 18.0283Z" fill="white"/>
</svg>
