<svg width="57" height="57" viewBox="0 0 57 57" fill="none" xmlns="http://www.w3.org/2000/svg">
<path d="M51.6562 1.3359H5.34375C4.29295 1.32521 3.28083 1.7318 2.52946 2.46647C1.77809 3.20114 1.34886 4.20388 1.33594 5.25465V51.7542C1.35119 52.8034 1.78146 53.8039 2.53257 54.5366C3.28368 55.2694 4.29447 55.6747 5.34375 55.664H51.6562C52.7071 55.6724 53.7186 55.2644 54.4695 54.5293C55.2205 53.7941 55.65 52.7916 55.6641 51.7408V5.24129C55.6453 4.1936 55.2138 3.19564 54.4633 2.46435C53.7129 1.73305 52.7041 1.32752 51.6562 1.3359Z" fill="#0076B2"/>
<path d="M9.37807 21.7002H17.4427V47.6486H9.37807V21.7002ZM13.4126 8.78613C14.3376 8.78613 15.2418 9.06048 16.0108 9.57445C16.7798 10.0884 17.3791 10.819 17.7329 11.6736C18.0866 12.5282 18.179 13.4686 17.9982 14.3758C17.8174 15.2829 17.3717 16.116 16.7173 16.7698C16.0629 17.4235 15.2294 17.8685 14.3221 18.0484C13.4148 18.2283 12.4745 18.1351 11.6202 17.7805C10.7659 17.4259 10.0359 16.8259 9.52266 16.0564C9.00942 15.2869 8.73594 14.3824 8.73682 13.4575C8.738 12.2181 9.23114 11.03 10.1079 10.1541C10.9846 9.27815 12.1733 8.78613 13.4126 8.78613ZM22.5014 21.7002H30.2321V25.2627H30.3389C31.4166 23.2232 34.0439 21.0723 37.9671 21.0723C46.1342 21.0545 47.6482 26.4294 47.6482 33.3986V47.6486H39.5836V35.0239C39.5836 32.0181 39.5302 28.1483 35.3932 28.1483C31.2563 28.1483 30.5527 31.4258 30.5527 34.828V47.6486H22.5014V21.7002Z" fill="white"/>
</svg>
