<svg width="23" height="23" viewBox="0 0 23 23" fill="none" xmlns="http://www.w3.org/2000/svg">
<path d="M5.26129 23H0.655185V8.19114H5.26129V23ZM2.93347 6.21002C1.49716 6.21002 0.308489 4.97182 0.308489 3.48598C0.308489 2.04967 1.49716 0.860996 2.93347 0.860996C4.41931 0.860996 5.60798 2.04967 5.60798 3.48598C5.60798 4.97182 4.41931 6.21002 2.93347 6.21002ZM22.4475 23H17.8909V15.8184C17.8909 14.085 17.8414 11.9057 15.464 11.9057C13.0867 11.9057 12.74 13.7383 12.74 15.6699V23H8.13391V8.19114H12.5419V10.2218H12.5914C13.2353 9.08264 14.7211 7.84444 16.9499 7.84444C21.6055 7.84444 22.497 10.9152 22.497 14.8774V23H22.4475Z" fill="white"/>
</svg>
