<svg width="20" height="21" viewBox="0 0 20 21" fill="none" xmlns="http://www.w3.org/2000/svg">
<path d="M16.6667 3.8335H3.33341C2.41675 3.8335 1.67508 4.5835 1.67508 5.50016L1.66675 15.5002C1.66675 16.4168 2.41675 17.1668 3.33341 17.1668H16.6667C17.5834 17.1668 18.3334 16.4168 18.3334 15.5002V5.50016C18.3334 4.5835 17.5834 3.8335 16.6667 3.8335ZM16.3334 7.37516L10.4417 11.0585C10.1751 11.2252 9.82508 11.2252 9.55841 11.0585L3.66675 7.37516C3.58319 7.32826 3.51001 7.26488 3.45166 7.18887C3.3933 7.11287 3.35097 7.02581 3.32723 6.93297C3.30349 6.84013 3.29883 6.74344 3.31355 6.64875C3.32826 6.55406 3.36203 6.46334 3.41282 6.38208C3.4636 6.30082 3.53035 6.23071 3.60902 6.17599C3.68769 6.12127 3.77664 6.08309 3.87049 6.06374C3.96435 6.0444 4.06115 6.0443 4.15504 6.06345C4.24894 6.0826 4.33797 6.12061 4.41675 6.17516L10.0001 9.66683L15.5834 6.17516C15.6622 6.12061 15.7512 6.0826 15.8451 6.06345C15.939 6.0443 16.0358 6.0444 16.1297 6.06374C16.2235 6.08309 16.3125 6.12127 16.3911 6.17599C16.4698 6.23071 16.5366 6.30082 16.5873 6.38208C16.6381 6.46334 16.6719 6.55406 16.6866 6.64875C16.7013 6.74344 16.6967 6.84013 16.6729 6.93297C16.6492 7.02581 16.6069 7.11287 16.5485 7.18887C16.4901 7.26488 16.417 7.32826 16.3334 7.37516Z" fill="#072032"/>
</svg>
