<svg width="20" height="20" viewBox="0 0 20 20" fill="none" xmlns="http://www.w3.org/2000/svg">
<path d="M16.6667 3.3335H3.33341C2.41675 3.3335 1.67508 4.0835 1.67508 5.00016L1.66675 15.0002C1.66675 15.9168 2.41675 16.6668 3.33341 16.6668H16.6667C17.5834 16.6668 18.3334 15.9168 18.3334 15.0002V5.00016C18.3334 4.0835 17.5834 3.3335 16.6667 3.3335ZM16.3334 6.87516L10.4417 10.5585C10.1751 10.7252 9.82508 10.7252 9.55841 10.5585L3.66675 6.87516C3.58319 6.82826 3.51001 6.76488 3.45166 6.68887C3.3933 6.61287 3.35097 6.52581 3.32723 6.43297C3.30349 6.34013 3.29883 6.24344 3.31355 6.14875C3.32826 6.05406 3.36203 5.96334 3.41282 5.88208C3.4636 5.80082 3.53035 5.73071 3.60902 5.67599C3.68769 5.62127 3.77664 5.58309 3.87049 5.56374C3.96435 5.5444 4.06115 5.5443 4.15504 5.56345C4.24894 5.5826 4.33797 5.62061 4.41675 5.67516L10.0001 9.16683L15.5834 5.67516C15.6622 5.62061 15.7512 5.5826 15.8451 5.56345C15.939 5.5443 16.0358 5.5444 16.1297 5.56374C16.2235 5.58309 16.3125 5.62127 16.3911 5.67599C16.4698 5.73071 16.5366 5.80082 16.5873 5.88208C16.6381 5.96334 16.6719 6.05406 16.6866 6.14875C16.7013 6.24344 16.6967 6.34013 16.6729 6.43297C16.6492 6.52581 16.6069 6.61287 16.5485 6.68887C16.4901 6.76488 16.417 6.82826 16.3334 6.87516Z" fill="#93999D"/>
</svg>
