<svg width="85" height="85" viewBox="0 0 85 85" fill="none" xmlns="http://www.w3.org/2000/svg">
<circle cx="42.5" cy="42.5" r="42.5" fill="#072032"/>
<g clip-path="url(#clip0_805_824)">
<path d="M32.3193 23.102C29.5078 23.6776 27.4221 25.8468 26.9882 28.65C26.9131 29.1088 26.8965 32.4376 26.9131 41.3728C26.9382 54.5628 26.9048 53.5533 27.397 54.8632C27.9477 56.3399 29.5745 57.9667 31.0512 58.5173C32.2776 58.9762 32.2609 58.9762 36.2571 58.9762C39.9029 58.9762 39.9864 58.9762 40.22 58.801C41.0376 58.192 41.0376 57.1741 40.22 56.5651C39.9864 56.3983 39.8696 56.3899 36.3406 56.3482C32.8616 56.3065 32.678 56.2981 32.2609 56.1229C30.901 55.5723 30.0334 54.6129 29.6913 53.2864C29.4994 52.5606 29.4994 29.4258 29.6913 28.6917C30.0667 27.2567 31.1847 26.1471 32.628 25.7717C33.3455 25.5881 49.8142 25.5881 50.5317 25.7717C51.8582 26.1137 52.8177 26.9814 53.3683 28.3413C53.5518 28.7668 53.5518 28.8669 53.5935 34.9238C53.6353 40.9974 53.6353 41.0725 53.8105 41.3061C54.4195 42.1237 55.4373 42.1237 56.0463 41.3061C56.2215 41.0725 56.2215 41.0307 56.2215 34.8404C56.2215 28.091 56.2382 28.3997 55.7627 27.1316C55.5207 26.4892 54.895 25.5381 54.3027 24.9541C53.7354 24.3701 52.7676 23.7193 52.1085 23.4774C50.8154 22.9935 51.4912 23.0185 41.7884 23.0019C34.6553 22.9935 32.7531 23.0102 32.3193 23.102Z" fill="#D6F1FF"/>
<path d="M34.3634 31.1028C33.8044 31.3447 33.4874 31.9871 33.6042 32.6128C33.6792 33.0049 34.0964 33.4638 34.4718 33.5723C34.6804 33.639 36.4157 33.6557 39.7612 33.639C44.6417 33.614 44.7418 33.614 44.9671 33.4388C45.4093 33.1134 45.5428 32.8464 45.5428 32.3208C45.5428 31.7952 45.4093 31.5283 44.9671 31.2029C44.7418 31.0277 44.6417 31.0277 39.6777 31.011C35.5981 30.9943 34.5636 31.011 34.3634 31.1028Z" fill="#D6F1FF"/>
<path d="M34.3634 37.7771C33.8044 38.019 33.4874 38.6614 33.6042 39.2871C33.6792 39.6793 34.0964 40.1381 34.4718 40.2466C34.6804 40.3133 37.0164 40.33 41.7635 40.3133C48.663 40.2883 48.7464 40.2883 48.9717 40.1131C49.4138 39.7877 49.5473 39.5207 49.5473 38.9951C49.5473 38.4695 49.4138 38.2026 48.9717 37.8772C48.7464 37.702 48.6713 37.702 41.68 37.6853C35.9318 37.6686 34.5636 37.6853 34.3634 37.7771Z" fill="#D6F1FF"/>
<path d="M34.3637 43.1164C33.5795 43.4584 33.3292 44.5263 33.8798 45.1771C34.2969 45.6776 34.2552 45.6693 38.8271 45.6693C42.865 45.6693 43.0152 45.661 43.3406 45.5024C44.1999 45.0603 44.3 43.8672 43.5158 43.2666L43.2238 43.0413L38.9189 43.0246C35.4649 43.0079 34.5639 43.0246 34.3637 43.1164Z" fill="#D6F1FF"/>
<path d="M50.7568 44.4597C47.8284 44.9269 45.2505 46.8374 43.8823 49.5655C41.9217 53.4866 43.0397 58.3338 46.5353 61.0369C50.0977 63.79 54.9783 63.6482 58.4239 60.6948C60.0257 59.3099 61.202 57.1074 61.5191 54.8882C61.9612 51.7513 60.618 48.4142 58.0901 46.3952C56.0461 44.76 53.3598 44.0509 50.7568 44.4597ZM53.8436 47.1961C55.5706 47.6717 56.9138 48.6311 57.8565 50.0744C58.5907 51.1923 58.8911 52.2268 58.8911 53.6785C58.8911 55.564 58.2653 57.0824 56.9639 58.3839C54.3776 60.9701 50.1895 60.9868 47.5948 58.4256C46.2516 57.0991 45.6259 55.589 45.6259 53.6785C45.6259 52.2185 45.9263 51.2007 46.6688 50.0577C47.6532 48.5477 49.1883 47.5131 51.0071 47.121C51.6745 46.9792 53.1929 47.0209 53.8436 47.1961Z" fill="#D6F1FF"/>
<path d="M54.3861 50.9588C54.2526 51.0255 53.5184 51.7013 52.7592 52.4605L51.391 53.8371L50.8403 53.3115C50.1729 52.6691 49.7808 52.5106 49.2385 52.6774C48.8047 52.8026 48.3625 53.2531 48.2874 53.6368C48.1706 54.2876 48.2791 54.4795 49.4471 55.6642C50.0561 56.2815 50.6568 56.8322 50.7903 56.9072C51.0906 57.0658 51.6746 57.0658 51.975 56.9072C52.1085 56.8322 53.1013 55.8811 54.1942 54.7882C55.8711 53.0946 56.1714 52.7525 56.2215 52.4855C56.4301 51.3843 55.3789 50.5083 54.3861 50.9588Z" fill="#D6F1FF"/>
<path d="M34.3634 48.4559C33.8044 48.6978 33.4874 49.3402 33.6042 49.9659C33.6792 50.3581 34.0964 50.8169 34.4718 50.9254C34.672 50.9838 35.6982 51.0088 37.3835 50.9921C39.8696 50.9671 39.9948 50.9587 40.22 50.7919C41.0376 50.1829 41.0376 49.165 40.22 48.556C39.9948 48.3892 39.878 48.3808 37.3 48.3641C35.1893 48.3474 34.5552 48.3641 34.3634 48.4559Z" fill="#D6F1FF"/>
</g>
<defs>
<clipPath id="clip0_805_824">
<rect width="40" height="40" fill="white" transform="translate(23 23)"/>
</clipPath>
</defs>
</svg>
