<svg width="25" height="25" viewBox="0 0 25 25" fill="none" xmlns="http://www.w3.org/2000/svg">
<g clip-path="url(#clip0_346_16)">
<path d="M8.32432 5C10.1543 5 11.9094 5.79018 13.2034 7.1967C14.4974 8.60322 15.2243 10.5109 15.2243 12.5C15.2243 14.4891 14.4974 16.3968 13.2034 17.8033C11.9094 19.2098 10.1543 20 8.32432 20C6.49432 20 4.73928 19.2098 3.44528 17.8033C2.15128 16.3968 1.42432 14.4891 1.42432 12.5C1.42432 10.5109 2.15128 8.60322 3.44528 7.1967C4.73928 5.79018 6.49432 5 8.32432 5ZM18.6743 6.25C20.3993 6.25 21.5493 9.04875 21.5493 12.5C21.5493 15.9513 20.3993 18.75 18.6743 18.75C16.9493 18.75 15.7993 15.9513 15.7993 12.5C15.7993 9.04875 16.9493 6.25 18.6743 6.25ZM23.2743 6.875C23.7113 6.875 24.0931 7.90875 24.2863 9.6825L24.3404 10.2362L24.3622 10.53L24.3967 11.1475L24.4082 11.4713L24.422 12.1475L24.4243 12.5L24.422 12.8525L24.4082 13.5287L24.3967 13.8538L24.3622 14.47L24.3392 14.7638L24.2875 15.3175C24.0931 17.0925 23.7125 18.125 23.2743 18.125C22.8373 18.125 22.4555 17.0912 22.2623 15.3175L22.2083 14.7638L22.1864 14.47L22.1519 13.8525L22.1404 13.5287L22.1266 12.8525V12.1475L22.1404 11.4713L22.1519 11.1462L22.1864 10.53L22.2094 10.2362L22.2612 9.6825C22.4555 7.9075 22.8362 6.875 23.2743 6.875Z" fill="white"/>
</g>
<defs>
<clipPath id="clip0_346_16">
<rect width="24" height="24" fill="white" transform="translate(0.910156 0.679199)"/>
</clipPath>
</defs>
</svg>
