<svg width="85" height="85" viewBox="0 0 85 85" fill="none" xmlns="http://www.w3.org/2000/svg">
<circle cx="42.5" cy="42.5" r="42.5" fill="#072032"/>
<path d="M43.6591 16.6484C43.5351 16.6897 43.3389 16.8653 43.2149 17.0202C43.0084 17.2888 42.998 17.3817 42.998 20.6868V24.0848L43.2872 24.3947C43.4628 24.5909 43.7004 24.7355 43.9379 24.7665C44.2581 24.8181 44.3717 24.7768 44.6609 24.5186L45.0121 24.2088V20.6765V17.1442L44.6712 16.8447C44.3304 16.5451 44.0515 16.4832 43.6591 16.6484Z" fill="#7DC1E9"/>
<path d="M32.6594 18.4458C32.2256 18.5904 31.9055 19.1688 32.0088 19.6129C32.1017 19.9744 36.4706 24.4156 36.9767 24.6531C37.6583 24.9836 38.402 24.4776 38.3813 23.6926C38.371 23.3621 38.1644 23.1245 35.9129 20.873C34.5599 19.52 33.3618 18.4045 33.2378 18.3735C33.1036 18.3529 32.8453 18.3838 32.6594 18.4458Z" fill="#7DC1E9"/>
<path d="M55.2273 19.0859C54.7419 19.3234 50.373 23.775 50.2904 24.1055C50.1354 24.7871 50.7965 25.4895 51.4781 25.3552C51.6537 25.3242 52.5833 24.467 54.1945 22.8557C56.477 20.5732 56.6526 20.3666 56.6526 20.0361C56.6526 19.53 56.477 19.2408 56.0639 19.0652C55.6301 18.8897 55.6198 18.8897 55.2273 19.0859Z" fill="#7DC1E9"/>
<path d="M33.7337 29.0942C33.4342 29.1768 32.9901 29.342 32.7629 29.466C32.2155 29.7448 31.4099 30.5401 31.131 31.0875C30.6662 32.0067 30.6043 32.5232 30.6043 35.7353V38.7718L30.0052 39.4225C28.7142 40.8375 28.3527 42.2318 28.6419 44.7932C29.1583 49.4203 31.3686 53.5516 34.8802 56.4745C36.0473 57.4454 36.5224 58.0445 36.6876 58.7881C36.7496 59.067 36.8013 61.1016 36.8013 63.9729V68.7033L37.1008 69.0338L37.4003 69.3746L46.0348 69.4056L54.6589 69.4263L54.9998 69.1267L55.3406 68.8272L55.3922 64.0865L55.4542 59.3562L55.7847 58.2717C56.4354 56.1854 56.8692 54.068 57.2204 51.2484C57.3856 49.9264 57.4063 48.8626 57.4063 42.0562C57.4063 34.9193 57.3959 34.3203 57.2204 33.8349C56.8176 32.6678 55.9396 31.7485 54.8035 31.3044C54.3388 31.1288 53.9876 31.0669 53.2749 31.0669C52.4693 31.0669 52.2628 31.0978 51.6947 31.3561C51.3435 31.5213 51.0337 31.6349 51.013 31.6143C51.0027 31.5936 50.8478 31.3251 50.6929 31.0255C50.1661 30.0547 49.1746 29.3317 47.9662 29.0425C46.8817 28.7843 45.57 29.1045 44.5682 29.8688L44.0208 30.2922L43.6386 29.9617C42.7917 29.2181 41.387 28.8153 40.2922 29.0219C39.5486 29.1561 38.681 29.5589 38.1749 30.003L37.8238 30.3129L37.5449 30.0547C36.8736 29.435 35.5825 28.9289 34.6839 28.9496C34.4567 28.9496 34.0229 29.0219 33.7337 29.0942ZM35.8304 31.3354C36.0266 31.4697 36.3158 31.7589 36.4707 31.9758L36.7496 32.3786L36.7806 35.1052L36.8116 37.8216H34.9731C33.961 37.8216 33.0314 37.8526 32.9075 37.8836L32.6699 37.9455V35.3841C32.6699 33.9588 32.7216 32.6471 32.7732 32.4302C32.9075 31.9758 33.6098 31.2528 34.0539 31.1082C34.56 30.9533 35.4276 31.0669 35.8304 31.3354ZM42.0687 31.3561C42.2856 31.4903 42.5645 31.7898 42.6987 32.0067C42.9363 32.3889 42.9466 32.4612 42.9776 35.1052L43.0086 37.8216H40.9429H38.8669V35.3118C38.8669 33.9381 38.9186 32.6471 38.9702 32.4302C39.1045 31.9758 39.8068 31.2528 40.2509 31.1082C40.7777 30.9533 41.6246 31.0669 42.0687 31.3561ZM48.2657 31.3561C48.4826 31.4903 48.7615 31.7898 48.8957 32.0067L49.1436 32.3992V36.4892V40.5793L48.8647 40.9821C48.3896 41.6534 47.9249 41.9013 47.1296 41.9013C46.5512 41.9013 46.3756 41.86 46.0348 41.6224C45.8179 41.4675 45.5184 41.168 45.3738 40.9511L45.1156 40.5793L45.0846 36.7268C45.0639 34.248 45.0949 32.7297 45.1672 32.4612C45.2911 31.9861 45.9831 31.2528 46.4479 31.1082C46.9747 30.9533 47.8216 31.0669 48.2657 31.3561ZM54.4627 33.4217C54.6796 33.556 54.9585 33.8555 55.0927 34.0724L55.3406 34.4649V38.5549V42.6449L55.0617 43.0477C54.5866 43.7191 54.1219 43.9669 53.3266 43.9669C52.7482 43.9669 52.5726 43.9256 52.2318 43.6881C52.0149 43.5332 51.7154 43.2336 51.5708 43.0167L51.3126 42.6449L51.2816 38.7924C51.2609 36.3137 51.2919 34.7954 51.3642 34.5269C51.4881 34.0518 52.1801 33.3184 52.6449 33.1738C53.1717 33.0189 54.0186 33.1325 54.4627 33.4217ZM42.8433 40.1145C42.6781 40.6619 42.141 41.7154 41.8002 42.1285C41.2837 42.7585 40.4885 43.3266 39.6415 43.6571C38.9805 43.9256 38.7636 43.9566 37.1318 44.0083L35.3346 44.0702L35.0351 44.4111C34.6426 44.8449 34.6426 45.258 35.0351 45.6918C35.3243 46.012 35.345 46.0223 36.5017 46.0946C37.8134 46.1772 38.1026 46.2495 38.8772 46.6626C39.7758 47.1584 40.3852 47.9847 40.8809 49.4203C41.0565 49.9264 41.418 50.2156 41.8621 50.2156C42.234 50.2156 42.6574 49.9264 42.7917 49.5856C43.0809 48.9039 42.3992 47.21 41.3767 46.0842C41.0565 45.7434 40.819 45.4439 40.8396 45.4232C40.8603 45.4026 41.1392 45.258 41.449 45.0927C42.0067 44.7932 43.3907 43.5332 43.7935 42.9444L43.9898 42.6552L44.5578 43.0787C45.4151 43.7294 46.0761 43.9566 47.1812 43.9566C47.9868 43.9566 48.1934 43.9256 48.7615 43.6674C49.1126 43.5022 49.4225 43.3886 49.4431 43.4092C49.4535 43.4299 49.6084 43.6984 49.7736 44.0083C50.6825 45.7124 53.089 46.549 54.8448 45.7744C55.1031 45.6608 55.3406 45.5678 55.3716 45.5678C55.4749 45.5678 55.2993 49.8541 55.134 51.2484C54.9171 53.1178 54.3697 55.7929 53.7914 57.7966C53.5022 58.8191 53.3266 59.6557 53.3266 59.9965V60.5439H46.0967H38.8669V59.7383C38.8669 57.683 38.2162 56.5468 35.9233 54.6361C32.9281 52.1263 30.8935 47.9743 30.6352 43.8637C30.5423 42.2318 30.8831 41.2506 31.823 40.5483C32.6596 39.9079 32.7526 39.8976 38.0716 39.8873H42.9053L42.8433 40.1145ZM53.3266 64.9851V67.3606H46.0967H38.8669V64.9851V62.6096H46.0967H53.3266V64.9851Z" fill="#7DC1E9"/>
</svg>
