<svg width="85" height="85" viewBox="0 0 85 85" fill="none" xmlns="http://www.w3.org/2000/svg">
<circle cx="42.5" cy="42.5" r="42.5" fill="#072032"/>
<g clip-path="url(#clip0_790_481)">
<path d="M60.9551 23.9008C60.1508 24.2293 58.882 24.7504 58.1457 25.0563C56.0273 25.9285 55.393 26.6649 55.4836 28.1149L55.5289 28.8512L55.0758 28.7719C54.8152 28.7379 53.9543 28.4207 53.1387 28.0809C50.5445 26.9707 48.6527 26.461 47.1688 26.461C45.798 26.4723 44.2348 26.9821 42.6375 27.9449L42.2184 28.1942L41.0516 27.7297C38.5367 26.7328 36.7016 26.4949 34.8438 26.9141C34.0281 27.1067 33.2465 27.1746 31.6719 27.2199L29.5762 27.2766L29.3836 26.8801C29.2816 26.6649 29.0098 26.3477 28.7945 26.1778C28.1941 25.7246 22.8699 23.8555 22.1676 23.8555C21.4313 23.8555 20.5137 24.3313 20.0832 24.943C19.8453 25.2942 19.109 27.6391 16.8887 35.127C15.3027 40.4852 14 45.0504 14 45.277C14 46.002 14.3172 46.7043 14.8949 47.2141C15.382 47.6446 15.7445 47.8145 18.2594 48.6981C20.1738 49.3664 21.2387 49.6949 21.5672 49.6836C22.0316 49.6836 22.0543 49.6949 21.9637 49.9328C21.9184 50.0801 21.873 50.6805 21.873 51.2696C21.873 52.2211 21.907 52.425 22.1902 52.9914C22.6887 54.011 23.4023 54.7133 24.4672 55.2344C25.0789 55.5403 25.6113 55.7215 26.0418 55.7668L26.6875 55.8348V56.2653C26.6875 56.8203 27.0273 57.8965 27.3898 58.4629C28.3867 60.0375 30.5277 61.0684 32.2383 60.7965C32.5781 60.7399 33.0879 60.6039 33.3598 60.4906C33.8355 60.2981 33.8582 60.2981 33.9715 60.5133C34.2207 60.9891 35.2969 61.9067 35.9879 62.2352C37.3926 62.9035 38.752 62.9262 40.0094 62.3145C41.0176 61.816 41.5953 61.0571 42.2637 59.3465L42.5809 58.5422L44.348 59.6184C46.8629 61.159 47.1574 61.2949 48.2676 61.2836C49.0492 61.2836 49.2871 61.227 49.9441 60.9324C51.2242 60.3321 52.1191 59.1653 52.425 57.7266L52.5496 57.1035H53.5805C54.4641 57.1035 54.702 57.0582 55.257 56.7977C56.0727 56.4238 56.809 55.7442 57.2055 54.9965C57.5453 54.3848 57.8398 53.4446 57.8398 52.9574C57.8398 52.6742 57.8738 52.6516 58.5195 52.5949C59.4145 52.5156 60.5246 51.9946 61.1816 51.3262C61.7254 50.7824 62.3258 49.6836 62.4391 49.0039C62.5523 48.3016 62.5637 48.2903 63.0621 48.6301C63.4359 48.868 63.6965 48.9473 64.2969 48.9813C65.1352 49.0266 65.1805 49.0153 68.998 47.418C70.4141 46.8176 70.7766 46.6137 71.207 46.1832C71.7395 45.6395 72 45.0391 72 44.3254C72 43.9516 65.6449 25.3848 65.2711 24.6711C64.8746 23.9235 63.8211 23.3004 62.9375 23.2891C62.575 23.2891 61.9973 23.4703 60.9551 23.9008ZM66.166 35.025C67.9105 40.0547 69.3492 44.2235 69.3719 44.3028C69.4059 44.4274 64.852 46.3985 64.5461 46.3985C64.3988 46.3985 64.7387 47.3274 61.159 37.0074C59.4484 32.0684 58.0891 27.9789 58.1457 27.9336C58.2477 27.8203 62.6996 25.9285 62.8809 25.9059C62.9488 25.8946 64.4215 30.0067 66.166 35.025ZM24.6824 27.3106C25.9852 27.775 27.0727 28.1602 27.0953 28.1602C27.118 28.1602 27.1406 28.2281 27.1406 28.2961C27.152 28.5906 21.6465 47.0781 21.5559 47.0781C21.4426 47.0781 16.6961 45.3903 16.6281 45.3336C16.6168 45.311 17.7156 41.4707 19.0977 36.8149C22.1789 26.359 22.1562 26.461 22.2355 26.461C22.2695 26.461 23.3684 26.8461 24.6824 27.3106ZM48.5508 29.225C49.5363 29.4403 50.4652 29.7688 52.3117 30.5504C53.9543 31.2528 55.0305 31.502 55.948 31.3774L56.4352 31.3094L58.6215 37.6305C59.8336 41.1196 60.8418 44.0309 60.8758 44.1102C60.8984 44.1895 59.8336 43.4758 58.5082 42.5242C53.1953 38.7067 49.7063 36.3957 47.7691 35.4328C46.8969 35.0024 46.5797 34.9004 45.9566 34.8664C44.6426 34.7871 43.8383 35.2063 41.516 37.1774C39.2277 39.1258 38.5027 39.3863 37.6984 38.5481C36.9848 37.8117 36.8941 36.7922 37.4605 35.9426C37.959 35.1836 39.6922 33.3938 40.893 32.3856C42.5469 30.9922 44.8012 29.5988 45.9906 29.225C46.6023 29.0324 47.6445 29.0324 48.5508 29.225ZM38.6387 29.6328C39.0805 29.7688 39.4656 29.916 39.5223 29.9613C39.5676 30.0067 39.1031 30.4824 38.5027 31.0262C36.7809 32.5442 35.3762 34.1867 34.8777 35.2516C34.5945 35.852 34.5605 36.0446 34.5605 37.1094C34.5605 38.2196 34.5832 38.3555 34.923 39.0692C35.6934 40.6891 37.0301 41.5613 38.7293 41.5613C39.5336 41.5727 39.6809 41.5274 40.5418 41.0969C41.1648 40.7797 41.9578 40.2133 42.9434 39.3637C44.7559 37.8344 45.3109 37.4492 45.7641 37.4492C46.2625 37.4492 48.1203 38.5254 51.1562 40.5645C54.532 42.8301 58.9387 45.9793 59.3918 46.4551C60.298 47.418 60.1055 49.0039 58.9727 49.7742C58.3383 50.2047 57.7605 50.0914 56.5258 49.2758C55.9707 48.9133 53.943 47.6106 52.0059 46.3758C48.834 44.3481 48.4488 44.1328 48.007 44.1328C47.5879 44.1328 47.4406 44.2008 47.1234 44.518C46.6137 45.0278 46.5797 45.6621 47.0555 46.1719C47.2254 46.3531 49.0152 47.5653 51.043 48.8567C54.1809 50.8731 54.7586 51.2809 54.9738 51.666C55.6535 52.8555 54.8605 54.5547 53.6371 54.5547C53.3426 54.5547 52.3344 53.9996 49.1852 52.1192C44.9484 49.5703 44.7785 49.5024 44.0762 49.8196C43.4871 50.0801 43.2492 51.1676 43.657 51.6887C43.759 51.8246 45.0957 52.6969 46.625 53.6145C49.2078 55.1778 49.423 55.325 49.6609 55.8008C50.2613 57.0016 49.6836 58.4742 48.5168 58.6895C48.007 58.7914 47.7918 58.6895 45.5375 57.3074L43.5664 56.1067L43.6457 55.6988C43.7023 55.4723 43.7363 54.9285 43.725 54.4867C43.7137 52.9121 42.6375 51.3262 41.0742 50.5332C40.2926 50.1367 39.409 49.9102 38.7066 49.9102C38.2875 49.9102 38.2648 49.8988 38.1969 49.4457C38.0836 48.7207 37.6078 47.8258 36.9734 47.1348C36.2711 46.3645 35.093 45.7528 33.9602 45.5715L33.1672 45.4469L33.1219 44.6992C33.0086 43.1699 32.0457 41.8332 30.5051 41.0742C29.7801 40.7117 29.3949 40.5985 28.7719 40.5418C27.9223 40.4738 26.9367 40.6778 26.3703 41.0516C26.1098 41.2215 26.0984 41.2215 26.1551 41.0176C26.1891 40.893 26.948 38.3328 27.8316 35.3196L29.4402 29.8594H31.1508C32.7367 29.8594 34.5832 29.6668 35.5234 29.4063C36.1238 29.2477 37.7438 29.361 38.6387 29.6328ZM29.3836 43.4078C30.0973 43.759 30.5391 44.416 30.5391 45.107C30.5391 45.4129 30.1199 46.591 29.225 48.834C28.5 50.6352 27.8203 52.2891 27.707 52.5156C27.3332 53.2406 26.5855 53.3879 25.6 52.9235C24.8863 52.5949 24.5125 52.0965 24.4445 51.3715C24.3992 50.8844 24.5238 50.4992 25.7246 47.5086C26.4496 45.6848 27.118 44.0309 27.2086 43.8496C27.5598 43.0906 28.4094 42.9207 29.3836 43.4078ZM34.198 48.3695C34.2773 48.4715 34.6172 49.0832 34.957 49.7403L35.5801 50.9184L34.232 54.2602C33.4844 56.118 32.782 57.7039 32.6461 57.8285C32.1023 58.3383 31.3773 58.3836 30.5391 57.9531C29.8141 57.5793 29.293 56.809 29.293 56.0953C29.293 55.7668 31.5586 49.8762 32.091 48.8567C32.3516 48.3469 32.884 48.075 33.5184 48.1317C33.8469 48.1656 34.1074 48.2563 34.198 48.3695ZM39.7715 52.7875C40.0887 52.9348 40.4512 53.1727 40.5871 53.3199C40.893 53.6598 41.1875 54.3395 41.1875 54.7133C41.1875 55.0871 39.4543 59.4031 39.1824 59.7203C39.0578 59.8563 38.752 60.0375 38.4914 60.1168C38.0949 60.2301 37.9477 60.2188 37.5172 60.0602C36.3957 59.6297 35.8066 58.916 35.8066 58.0098C35.8066 57.568 37.2566 53.7164 37.6645 53.0934C38.0496 52.493 38.8992 52.3684 39.7715 52.7875Z" fill="#7DC1E9"/>
</g>
<defs>
<clipPath id="clip0_790_481">
<rect width="58" height="58" fill="white" transform="translate(14 14)"/>
</clipPath>
</defs>
</svg>
