<svg width="20" height="15" viewBox="0 0 20 15" fill="none" xmlns="http://www.w3.org/2000/svg">
<path d="M11.8473 2.54833C11.5871 2.26473 11.4431 1.88489 11.4464 1.49063C11.4496 1.09637 11.5999 0.71922 11.8647 0.440423C12.1296 0.161625 12.4879 0.00348289 12.8625 5.68434e-05C13.2371 -0.0033692 13.5979 0.148195 13.8674 0.422106L19.5817 6.43689C19.8495 6.71887 20 7.10127 20 7.5C20 7.89873 19.8495 8.28113 19.5817 8.56311L13.8674 14.5779C13.5979 14.8518 13.2371 15.0034 12.8625 14.9999C12.4879 14.9965 12.1296 14.8384 11.8647 14.5596C11.5999 14.2808 11.4496 13.9036 11.4464 13.5094C11.4431 13.1151 11.5871 12.7353 11.8473 12.4517L15.1231 9.00369H1.42859C1.04971 9.00369 0.686337 8.84527 0.418423 8.56327C0.150511 8.28127 0 7.8988 0 7.5C0 7.10119 0.150511 6.71872 0.418423 6.43673C0.686337 6.15473 1.04971 5.9963 1.42859 5.9963H15.1231L11.8473 2.54833Z" fill="#1C1C1C"/>
</svg>
