<svg width="25" height="25" viewBox="0 0 25 25" fill="none" xmlns="http://www.w3.org/2000/svg">
<path d="M21.4444 1C22.1222 1 22.7722 1.26925 23.2515 1.7485C23.7308 2.22776 24 2.87778 24 3.55556V21.4444C24 22.1222 23.7308 22.7722 23.2515 23.2515C22.7722 23.7308 22.1222 24 21.4444 24H3.55556C2.87778 24 2.22776 23.7308 1.7485 23.2515C1.26925 22.7722 1 22.1222 1 21.4444V3.55556C1 2.87778 1.26925 2.22776 1.7485 1.7485C2.22776 1.26925 2.87778 1 3.55556 1H21.4444ZM20.8056 20.8056V14.0333C20.8056 12.9286 20.3667 11.869 19.5855 11.0878C18.8043 10.3066 17.7448 9.86778 16.64 9.86778C15.5539 9.86778 14.2889 10.5322 13.6756 11.5289V10.1106H10.1106V20.8056H13.6756V14.5061C13.6756 13.5222 14.4678 12.7172 15.4517 12.7172C15.9261 12.7172 16.3811 12.9057 16.7166 13.2412C17.0521 13.5767 17.2406 14.0317 17.2406 14.5061V20.8056H20.8056ZM5.95778 8.10444C6.52711 8.10444 7.07312 7.87828 7.4757 7.4757C7.87828 7.07312 8.10444 6.52711 8.10444 5.95778C8.10444 4.76944 7.14611 3.79833 5.95778 3.79833C5.38506 3.79833 4.83579 4.02585 4.43082 4.43082C4.02585 4.83579 3.79833 5.38506 3.79833 5.95778C3.79833 7.14611 4.76944 8.10444 5.95778 8.10444ZM7.73389 20.8056V10.1106H4.19444V20.8056H7.73389Z" fill="white"/>
</svg>
