<svg width="298" height="104" viewBox="0 0 298 104" fill="none" xmlns="http://www.w3.org/2000/svg">
<rect width="298" height="104" rx="15" fill="#072032"/>
<path d="M72.14 59V47.18H68.04V45H78.9V47.18H74.82V59H72.14ZM83.7967 59.24C82.7834 59.24 81.8834 59.0267 81.0967 58.6C80.3234 58.16 79.7167 57.5533 79.2767 56.78C78.8501 55.9933 78.6367 55.0867 78.6367 54.06C78.6367 53.0067 78.8501 52.08 79.2767 51.28C79.7167 50.4667 80.3234 49.8333 81.0967 49.38C81.8701 48.9133 82.7701 48.68 83.7967 48.68C84.7967 48.68 85.6701 48.9 86.4167 49.34C87.1634 49.78 87.7434 50.3733 88.1567 51.12C88.5701 51.8667 88.7767 52.7133 88.7767 53.66C88.7767 53.7933 88.7767 53.9467 88.7767 54.12C88.7767 54.28 88.7634 54.4467 88.7367 54.62H80.5567V52.98H86.0567C86.0167 52.3267 85.7834 51.8133 85.3567 51.44C84.9434 51.0667 84.4234 50.88 83.7967 50.88C83.3434 50.88 82.9234 50.9867 82.5367 51.2C82.1501 51.4 81.8434 51.7133 81.6167 52.14C81.4034 52.5667 81.2967 53.1067 81.2967 53.76V54.34C81.2967 54.8867 81.3967 55.3667 81.5967 55.78C81.8101 56.18 82.1034 56.4933 82.4767 56.72C82.8501 56.9333 83.2834 57.04 83.7767 57.04C84.2701 57.04 84.6767 56.9333 84.9967 56.72C85.3301 56.5067 85.5767 56.2333 85.7367 55.9H88.4967C88.3101 56.5267 87.9967 57.0933 87.5567 57.6C87.1167 58.1067 86.5767 58.5067 85.9367 58.8C85.2967 59.0933 84.5834 59.24 83.7967 59.24ZM95.868 59.24C94.8546 59.24 93.9546 59.0133 93.168 58.56C92.3813 58.1067 91.768 57.4867 91.328 56.7C90.888 55.9133 90.668 55.0133 90.668 54C90.668 52.96 90.888 52.0467 91.328 51.26C91.768 50.46 92.3813 49.8333 93.168 49.38C93.9546 48.9133 94.8546 48.68 95.868 48.68C97.1613 48.68 98.248 49.02 99.128 49.7C100.008 50.38 100.568 51.3133 100.808 52.5H97.948C97.828 52.0333 97.5746 51.6667 97.188 51.4C96.8146 51.1333 96.368 51 95.848 51C95.3813 51 94.9613 51.12 94.588 51.36C94.228 51.5867 93.9413 51.9267 93.728 52.38C93.528 52.82 93.428 53.3467 93.428 53.96C93.428 54.4267 93.488 54.8467 93.608 55.22C93.728 55.58 93.8946 55.8933 94.108 56.16C94.3213 56.4133 94.5746 56.6067 94.868 56.74C95.1746 56.8733 95.5013 56.94 95.848 56.94C96.1946 56.94 96.508 56.88 96.788 56.76C97.0813 56.64 97.328 56.4733 97.528 56.26C97.728 56.0333 97.868 55.76 97.948 55.44H100.808C100.568 56.6 100.001 57.5267 99.108 58.22C98.228 58.9 97.148 59.24 95.868 59.24ZM103.136 59V44.6H105.836V50.42C106.17 49.8867 106.61 49.4667 107.156 49.16C107.716 48.84 108.363 48.68 109.096 48.68C109.936 48.68 110.643 48.86 111.216 49.22C111.79 49.5667 112.223 50.0733 112.516 50.74C112.81 51.4067 112.956 52.2333 112.956 53.22V59H110.276V53.46C110.276 52.66 110.11 52.0467 109.776 51.62C109.443 51.18 108.916 50.96 108.196 50.96C107.756 50.96 107.356 51.0667 106.996 51.28C106.636 51.4933 106.35 51.8067 106.136 52.22C105.936 52.62 105.836 53.1 105.836 53.66V59H103.136ZM115.5 59V48.92H117.88L118.08 50.56C118.386 50 118.82 49.5467 119.38 49.2C119.953 48.8533 120.633 48.68 121.42 48.68C122.26 48.68 122.966 48.8533 123.54 49.2C124.113 49.5467 124.546 50.0533 124.84 50.72C125.146 51.3867 125.3 52.2067 125.3 53.18V59H122.62V53.44C122.62 52.64 122.446 52.0267 122.1 51.6C121.766 51.1733 121.246 50.96 120.54 50.96C120.086 50.96 119.68 51.0667 119.32 51.28C118.973 51.4933 118.7 51.8 118.5 52.2C118.3 52.5867 118.2 53.06 118.2 53.62V59H115.5ZM132.603 59.24C131.643 59.24 130.777 59.02 130.003 58.58C129.243 58.1267 128.637 57.5067 128.183 56.72C127.743 55.92 127.523 55.0067 127.523 53.98C127.523 52.9267 127.743 52.0067 128.183 51.22C128.637 50.42 129.25 49.8 130.023 49.36C130.797 48.9067 131.663 48.68 132.623 48.68C133.597 48.68 134.463 48.9067 135.223 49.36C135.997 49.8 136.603 50.42 137.043 51.22C137.497 52.0067 137.723 52.92 137.723 53.96C137.723 55 137.497 55.92 137.043 56.72C136.603 57.5067 135.997 58.1267 135.223 58.58C134.45 59.02 133.577 59.24 132.603 59.24ZM132.603 56.9C133.057 56.9 133.457 56.7933 133.803 56.58C134.163 56.3667 134.443 56.04 134.643 55.6C134.857 55.16 134.963 54.6133 134.963 53.96C134.963 53.3067 134.857 52.7667 134.643 52.34C134.443 51.9 134.163 51.5733 133.803 51.36C133.457 51.1333 133.063 51.02 132.623 51.02C132.197 51.02 131.803 51.1333 131.443 51.36C131.083 51.5733 130.797 51.9 130.583 52.34C130.383 52.7667 130.283 53.3067 130.283 53.96C130.283 54.6133 130.383 55.16 130.583 55.6C130.797 56.04 131.077 56.3667 131.423 56.58C131.783 56.7933 132.177 56.9 132.603 56.9ZM140.05 59V44.6H142.75V59H140.05ZM150.143 59.24C149.183 59.24 148.316 59.02 147.543 58.58C146.783 58.1267 146.176 57.5067 145.723 56.72C145.283 55.92 145.063 55.0067 145.063 53.98C145.063 52.9267 145.283 52.0067 145.723 51.22C146.176 50.42 146.789 49.8 147.563 49.36C148.336 48.9067 149.203 48.68 150.163 48.68C151.136 48.68 152.003 48.9067 152.763 49.36C153.536 49.8 154.143 50.42 154.583 51.22C155.036 52.0067 155.263 52.92 155.263 53.96C155.263 55 155.036 55.92 154.583 56.72C154.143 57.5067 153.536 58.1267 152.763 58.58C151.989 59.02 151.116 59.24 150.143 59.24ZM150.143 56.9C150.596 56.9 150.996 56.7933 151.343 56.58C151.703 56.3667 151.983 56.04 152.183 55.6C152.396 55.16 152.503 54.6133 152.503 53.96C152.503 53.3067 152.396 52.7667 152.183 52.34C151.983 51.9 151.703 51.5733 151.343 51.36C150.996 51.1333 150.603 51.02 150.163 51.02C149.736 51.02 149.343 51.1333 148.983 51.36C148.623 51.5733 148.336 51.9 148.123 52.34C147.923 52.7667 147.823 53.3067 147.823 53.96C147.823 54.6133 147.923 55.16 148.123 55.6C148.336 56.04 148.616 56.3667 148.963 56.58C149.323 56.7933 149.716 56.9 150.143 56.9ZM161.285 63.64C160.325 63.64 159.485 63.52 158.765 63.28C158.045 63.0533 157.485 62.7 157.085 62.22C156.698 61.7533 156.505 61.1733 156.505 60.48C156.505 60.0133 156.625 59.5733 156.865 59.16C157.105 58.7467 157.452 58.3733 157.905 58.04C158.372 57.6933 158.952 57.4 159.645 57.16L160.665 58.48C160.052 58.68 159.605 58.9267 159.325 59.22C159.058 59.5267 158.925 59.8533 158.925 60.2C158.925 60.5067 159.025 60.7667 159.225 60.98C159.438 61.1933 159.718 61.3467 160.065 61.44C160.425 61.5467 160.825 61.6 161.265 61.6C161.692 61.6 162.058 61.5467 162.365 61.44C162.685 61.3333 162.932 61.1733 163.105 60.96C163.292 60.76 163.385 60.52 163.385 60.24C163.385 59.88 163.258 59.5867 163.005 59.36C162.752 59.1333 162.245 58.9933 161.485 58.94C160.805 58.8867 160.198 58.8133 159.665 58.72C159.145 58.6133 158.685 58.4933 158.285 58.36C157.885 58.2133 157.545 58.0533 157.265 57.88C156.998 57.7067 156.778 57.5333 156.605 57.36V56.9L158.745 54.6L160.685 55.22L158.165 57.7L158.925 56.38C159.072 56.46 159.212 56.54 159.345 56.62C159.492 56.6867 159.672 56.7533 159.885 56.82C160.098 56.8733 160.378 56.9267 160.725 56.98C161.072 57.0333 161.512 57.08 162.045 57.12C162.925 57.2 163.645 57.3667 164.205 57.62C164.778 57.8733 165.198 58.2133 165.465 58.64C165.732 59.0533 165.865 59.5667 165.865 60.18C165.865 60.78 165.698 61.34 165.365 61.86C165.045 62.3933 164.545 62.82 163.865 63.14C163.185 63.4733 162.325 63.64 161.285 63.64ZM161.285 56.02C160.445 56.02 159.718 55.86 159.105 55.54C158.505 55.2067 158.038 54.7667 157.705 54.22C157.385 53.66 157.225 53.04 157.225 52.36C157.225 51.68 157.385 51.0667 157.705 50.52C158.038 49.96 158.505 49.5133 159.105 49.18C159.718 48.8467 160.445 48.68 161.285 48.68C162.138 48.68 162.865 48.8467 163.465 49.18C164.078 49.5133 164.545 49.96 164.865 50.52C165.185 51.0667 165.345 51.68 165.345 52.36C165.345 53.04 165.185 53.66 164.865 54.22C164.545 54.7667 164.078 55.2067 163.465 55.54C162.865 55.86 162.138 56.02 161.285 56.02ZM161.285 53.96C161.805 53.96 162.225 53.8267 162.545 53.56C162.865 53.2933 163.025 52.9 163.025 52.38C163.025 51.86 162.865 51.4667 162.545 51.2C162.225 50.92 161.805 50.78 161.285 50.78C160.778 50.78 160.358 50.92 160.025 51.2C159.705 51.4667 159.545 51.86 159.545 52.38C159.545 52.9 159.705 53.2933 160.025 53.56C160.358 53.8267 160.778 53.96 161.285 53.96ZM162.965 50.84L162.525 48.92H166.665V50.52L162.965 50.84ZM170.139 63.4L172.579 57.88H171.979L167.939 48.92H170.879L173.759 55.42L176.359 48.92H179.219L172.999 63.4H170.139ZM185.696 59V45H188.396V56.9H194.536V59H185.696ZM201.08 59.24C200.12 59.24 199.253 59.02 198.48 58.58C197.72 58.1267 197.113 57.5067 196.66 56.72C196.22 55.92 196 55.0067 196 53.98C196 52.9267 196.22 52.0067 196.66 51.22C197.113 50.42 197.727 49.8 198.5 49.36C199.273 48.9067 200.14 48.68 201.1 48.68C202.073 48.68 202.94 48.9067 203.7 49.36C204.473 49.8 205.08 50.42 205.52 51.22C205.973 52.0067 206.2 52.92 206.2 53.96C206.2 55 205.973 55.92 205.52 56.72C205.08 57.5067 204.473 58.1267 203.7 58.58C202.927 59.02 202.053 59.24 201.08 59.24ZM201.08 56.9C201.533 56.9 201.933 56.7933 202.28 56.58C202.64 56.3667 202.92 56.04 203.12 55.6C203.333 55.16 203.44 54.6133 203.44 53.96C203.44 53.3067 203.333 52.7667 203.12 52.34C202.92 51.9 202.64 51.5733 202.28 51.36C201.933 51.1333 201.54 51.02 201.1 51.02C200.673 51.02 200.28 51.1333 199.92 51.36C199.56 51.5733 199.273 51.9 199.06 52.34C198.86 52.7667 198.76 53.3067 198.76 53.96C198.76 54.6133 198.86 55.16 199.06 55.6C199.273 56.04 199.553 56.3667 199.9 56.58C200.26 56.7933 200.653 56.9 201.08 56.9ZM212.223 63.64C211.263 63.64 210.423 63.52 209.703 63.28C208.983 63.0533 208.423 62.7 208.023 62.22C207.636 61.7533 207.443 61.1733 207.443 60.48C207.443 60.0133 207.563 59.5733 207.803 59.16C208.043 58.7467 208.389 58.3733 208.843 58.04C209.309 57.6933 209.889 57.4 210.583 57.16L211.603 58.48C210.989 58.68 210.543 58.9267 210.263 59.22C209.996 59.5267 209.863 59.8533 209.863 60.2C209.863 60.5067 209.963 60.7667 210.163 60.98C210.376 61.1933 210.656 61.3467 211.003 61.44C211.363 61.5467 211.763 61.6 212.203 61.6C212.629 61.6 212.996 61.5467 213.303 61.44C213.623 61.3333 213.869 61.1733 214.043 60.96C214.229 60.76 214.323 60.52 214.323 60.24C214.323 59.88 214.196 59.5867 213.943 59.36C213.689 59.1333 213.183 58.9933 212.423 58.94C211.743 58.8867 211.136 58.8133 210.603 58.72C210.083 58.6133 209.623 58.4933 209.223 58.36C208.823 58.2133 208.483 58.0533 208.203 57.88C207.936 57.7067 207.716 57.5333 207.543 57.36V56.9L209.683 54.6L211.623 55.22L209.103 57.7L209.863 56.38C210.009 56.46 210.149 56.54 210.283 56.62C210.429 56.6867 210.609 56.7533 210.823 56.82C211.036 56.8733 211.316 56.9267 211.663 56.98C212.009 57.0333 212.449 57.08 212.983 57.12C213.863 57.2 214.583 57.3667 215.143 57.62C215.716 57.8733 216.136 58.2133 216.403 58.64C216.669 59.0533 216.803 59.5667 216.803 60.18C216.803 60.78 216.636 61.34 216.303 61.86C215.983 62.3933 215.483 62.82 214.803 63.14C214.123 63.4733 213.263 63.64 212.223 63.64ZM212.223 56.02C211.383 56.02 210.656 55.86 210.043 55.54C209.443 55.2067 208.976 54.7667 208.643 54.22C208.323 53.66 208.163 53.04 208.163 52.36C208.163 51.68 208.323 51.0667 208.643 50.52C208.976 49.96 209.443 49.5133 210.043 49.18C210.656 48.8467 211.383 48.68 212.223 48.68C213.076 48.68 213.803 48.8467 214.403 49.18C215.016 49.5133 215.483 49.96 215.803 50.52C216.123 51.0667 216.283 51.68 216.283 52.36C216.283 53.04 216.123 53.66 215.803 54.22C215.483 54.7667 215.016 55.2067 214.403 55.54C213.803 55.86 213.076 56.02 212.223 56.02ZM212.223 53.96C212.743 53.96 213.163 53.8267 213.483 53.56C213.803 53.2933 213.963 52.9 213.963 52.38C213.963 51.86 213.803 51.4667 213.483 51.2C213.163 50.92 212.743 50.78 212.223 50.78C211.716 50.78 211.296 50.92 210.963 51.2C210.643 51.4667 210.483 51.86 210.483 52.38C210.483 52.9 210.643 53.2933 210.963 53.56C211.296 53.8267 211.716 53.96 212.223 53.96ZM213.903 50.84L213.463 48.92H217.603V50.52L213.903 50.84ZM224.166 59.24C223.206 59.24 222.339 59.02 221.566 58.58C220.806 58.1267 220.199 57.5067 219.746 56.72C219.306 55.92 219.086 55.0067 219.086 53.98C219.086 52.9267 219.306 52.0067 219.746 51.22C220.199 50.42 220.813 49.8 221.586 49.36C222.359 48.9067 223.226 48.68 224.186 48.68C225.159 48.68 226.026 48.9067 226.786 49.36C227.559 49.8 228.166 50.42 228.606 51.22C229.059 52.0067 229.286 52.92 229.286 53.96C229.286 55 229.059 55.92 228.606 56.72C228.166 57.5067 227.559 58.1267 226.786 58.58C226.013 59.02 225.139 59.24 224.166 59.24ZM224.166 56.9C224.619 56.9 225.019 56.7933 225.366 56.58C225.726 56.3667 226.006 56.04 226.206 55.6C226.419 55.16 226.526 54.6133 226.526 53.96C226.526 53.3067 226.419 52.7667 226.206 52.34C226.006 51.9 225.726 51.5733 225.366 51.36C225.019 51.1333 224.626 51.02 224.186 51.02C223.759 51.02 223.366 51.1333 223.006 51.36C222.646 51.5733 222.359 51.9 222.146 52.34C221.946 52.7667 221.846 53.3067 221.846 53.96C221.846 54.6133 221.946 55.16 222.146 55.6C222.359 56.04 222.639 56.3667 222.986 56.58C223.346 56.7933 223.739 56.9 224.166 56.9Z" fill="white"/>
</svg>
