<svg width="85" height="85" viewBox="0 0 85 85" fill="none" xmlns="http://www.w3.org/2000/svg">
<circle cx="42.5" cy="42.5" r="42.5" fill="#072032"/>
<path d="M38.012 27.0825C35.8738 27.527 34.2069 29.1147 33.6442 31.2457C33.5246 31.7255 33.4965 32.0925 33.4613 33.659L33.4191 35.5148H31.6115C30.029 35.5148 29.7336 35.5359 29.2483 35.6559C27.1241 36.2063 25.5134 37.921 25.0985 40.0802C25.0141 40.5177 25 42.0489 25 49.3875C25 58.0527 25 58.1726 25.1407 58.4478C25.3868 58.9347 26.0128 59.1394 26.4981 58.8994C26.6247 58.8359 27.6235 57.8833 28.7278 56.7825L30.7323 54.7785L39.2781 54.7574C47.8097 54.7362 47.8238 54.7362 48.3513 54.581C50.3489 54.0023 51.847 52.4782 52.3675 50.5095C52.487 50.0296 52.5152 49.6627 52.5503 48.0891L52.5925 46.2404H53.936H55.2794L57.2839 48.2585C58.3882 49.3663 59.3729 50.3189 59.4784 50.3754C59.9637 50.6294 60.6389 50.4036 60.8921 49.9097C61.0047 49.6768 61.0117 49.1405 60.9906 40.6306C60.9695 30.5118 61.0117 31.3657 60.449 30.1802C59.9004 29.03 58.9649 28.0915 57.8185 27.5411C56.6368 26.9766 57.4879 27.019 47.437 27.0048C40.1713 26.9907 38.3848 27.0048 38.012 27.0825ZM56.1023 29.1711C57.4175 29.4463 58.5499 30.5824 58.8243 31.9019C58.8805 32.163 58.9016 34.5269 58.9016 39.5933V46.9107L57.5793 45.5842C56.6157 44.6174 56.1937 44.2434 56.0179 44.1941C55.8631 44.1517 52.691 44.1235 47.1908 44.1235C39.7001 44.1235 38.5536 44.1094 38.1879 44.0176C37.0555 43.7213 36.113 42.804 35.7613 41.6679C35.6277 41.2375 35.6206 41.0046 35.6206 36.6085C35.6206 32.1912 35.6277 31.9796 35.7613 31.5421C35.9301 30.9987 36.3592 30.3284 36.7671 29.9685C37.1188 29.6651 37.9347 29.2558 38.3707 29.1711C38.849 29.0723 55.6451 29.0794 56.1023 29.1711ZM33.4613 39.5157C33.5035 41.6961 33.5739 42.0983 34.1084 43.185C34.657 44.307 35.8105 45.3654 36.9711 45.8382C37.9769 46.2404 37.9698 46.2404 44.4477 46.2404H50.3911V48.0186C50.3911 49.705 50.377 49.8321 50.2222 50.2696C49.8565 51.3068 49.1109 52.0477 48.0137 52.4711L47.6128 52.6264L38.7154 52.6616C33.82 52.6828 29.8039 52.704 29.7898 52.7181C29.7758 52.7252 29.1639 53.3249 28.4394 54.0517L27.1101 55.3713V48.0962C27.1101 43.4743 27.1382 40.6871 27.1804 40.4471C27.2718 39.9532 27.6587 39.1558 27.9822 38.7889C28.3198 38.3938 28.9458 37.9845 29.5015 37.794C29.9235 37.6458 30.0852 37.6317 31.6889 37.6317H33.4191L33.4613 39.5157Z" fill="#D6F1FF" stroke="#D6F1FF"/>
<path d="M40.4778 36.1345C40.0265 36.4173 39.8715 36.9621 40.114 37.4449C40.5385 38.3208 41.8387 38.1139 41.9937 37.1483C42.0408 36.8173 41.8185 36.3138 41.5288 36.1345C41.2391 35.9552 40.7675 35.9552 40.4778 36.1345Z" fill="#D6F1FF" stroke="#D6F1FF"/>
<path d="M46.4461 36.1516C45.9838 36.4755 45.875 36.9924 46.1469 37.523C46.5548 38.3293 47.8941 38.0536 47.9893 37.144C48.0369 36.7512 47.9281 36.4755 47.6222 36.2067C47.4318 36.0345 47.3366 36 47.0307 36C46.7656 36 46.6092 36.0413 46.4461 36.1516Z" fill="#D6F1FF" stroke="#D6F1FF"/>
<path d="M53.5701 36.0657C53.4954 36.0933 53.3393 36.2315 53.2172 36.3696C53.0407 36.5769 53 36.6805 53 36.9361C53 37.5579 53.4004 38 53.9637 38C55.0088 38 55.3889 36.715 54.5134 36.1278C54.3166 35.9897 53.828 35.9551 53.5701 36.0657Z" fill="#D6F1FF" stroke="#D6F1FF"/>
</svg>
