<svg width="39" height="39" viewBox="0 0 39 39" fill="none" xmlns="http://www.w3.org/2000/svg">
<g clip-path="url(#clip0_290_1200)">
<path d="M16.5787 12.236C15.958 12.1585 15.3801 11.8395 14.9695 11.3477C14.5588 10.8559 14.3481 10.2308 14.3829 9.60683C14.4178 8.9829 14.6952 8.41012 15.1556 8.01186C15.6159 7.61361 16.2223 7.42175 16.8442 7.4776L30.2489 8.91667C30.8773 8.98422 31.4659 9.29961 31.8853 9.79347C32.3047 10.2873 32.5206 10.9192 32.4855 11.5502L31.7345 25.0111C31.6889 25.6338 31.4013 26.2011 30.9338 26.5909C30.4662 26.9806 29.8561 27.1616 29.2347 27.0949C28.6134 27.0282 28.0306 26.7191 27.6119 26.2342C27.1931 25.7493 26.9719 25.1274 26.9959 24.5024L27.4264 16.7859L10.4643 31.191C9.995 31.5896 9.37828 31.7756 8.74981 31.7081C8.12134 31.6407 7.5326 31.3252 7.1131 30.8313C6.6936 30.3373 6.47771 29.7053 6.51292 29.0742C6.54812 28.4431 6.83155 27.8646 7.30084 27.4661L24.263 13.061L16.5787 12.236Z" fill="#1C1C1C" stroke="white"/>
</g>
<defs>
<clipPath id="clip0_290_1200">
<rect width="39" height="39" fill="white"/>
</clipPath>
</defs>
</svg>
