<svg width="25" height="25" viewBox="0 0 25 25" fill="none" xmlns="http://www.w3.org/2000/svg">
<g clip-path="url(#clip0_346_12)">
<path d="M10.5196 16.1429L16.4881 12.5L10.5196 8.85714V16.1429ZM23.8136 6.635C23.9631 7.20571 24.0666 7.97071 24.1356 8.94214C24.2161 9.91357 24.2506 10.7514 24.2506 11.48L24.3196 12.5C24.3196 15.1593 24.1356 17.1143 23.8136 18.365C23.5261 19.4579 22.8591 20.1621 21.8241 20.4657C21.2836 20.6236 20.2946 20.7329 18.7766 20.8057C17.2816 20.8907 15.9131 20.9271 14.6481 20.9271L12.8196 21C8.00108 21 4.99958 20.8057 3.81508 20.4657C2.78008 20.1621 2.11308 19.4579 1.82558 18.365C1.67608 17.7943 1.57258 17.0293 1.50358 16.0579C1.42308 15.0864 1.38858 14.2486 1.38858 13.52L1.31958 12.5C1.31958 9.84071 1.50358 7.88571 1.82558 6.635C2.11308 5.54214 2.78008 4.83786 3.81508 4.53429C4.35558 4.37643 5.34458 4.26714 6.86258 4.19429C8.35758 4.10929 9.72608 4.07286 10.9911 4.07286L12.8196 4C17.6381 4 20.6396 4.19429 21.8241 4.53429C22.8591 4.83786 23.5261 5.54214 23.8136 6.635Z" fill="white"/>
</g>
<defs>
<clipPath id="clip0_346_12">
<rect width="24" height="24" fill="white" transform="translate(0.80542 0.679199)"/>
</clipPath>
</defs>
</svg>
